<?xml version="1.0" encoding="utf-8"?>
<!-- Generator: Adobe Illustrator 17.1.0, SVG Export Plug-In . SVG Version: 6.00 Build 0)  -->
<!DOCTYPE svg PUBLIC "-//W3C//DTD SVG 1.1//EN" "http://www.w3.org/Graphics/SVG/1.1/DTD/svg11.dtd">
<svg version="1.1" id="Layer_1" xmlns="http://www.w3.org/2000/svg" xmlns:xlink="http://www.w3.org/1999/xlink" x="0px" y="0px"
	 viewBox="0 0 1920 941" enable-background="new 0 0 1920 941" xml:space="preserve">
<g>
	<path fill="#15CCD5" stroke="#15CCD5" d="M-20-98L-74,73l98-35L-20-98z"/>
	<path fill="#11D3D9" stroke="#11D3D9" d="M-20-98L24,38l85-114L-20-98z"/>
	<path fill="#07CCD5" stroke="#07CCD5" d="M-20-98l129,22l437-34L-20-98z"/>
	<path fill="#0DBBCD" stroke="#0DBBCD" d="M109-76L24,38l170,12L109-76z"/>
	<path fill="#08B7CC" stroke="#08B7CC" d="M109-76l85,126l89-84L109-76z"/>
	<path fill="#05B9CC" stroke="#05B9CC" d="M109-76l174,42l133-26L109-76z"/>
	<path fill="#03B5CB" stroke="#03B5CB" d="M109-76l307,16l130-50L109-76z"/>
	<path fill="#04A0C1" stroke="#04A0C1" d="M283-34l-89,84l184-15L283-34z"/>
	<path fill="#03A2C2" stroke="#03A2C2" d="M283-34l95,69l38-95L283-34z"/>
	<path fill="#0293BB" stroke="#0293BB" d="M416-60l-38,95l102-14L416-60z"/>
	<path fill="#019BBE" stroke="#019BBE" d="M416-60l64,81l66-131L416-60z"/>
	<path fill="#0190B6" stroke="#0190B6" d="M546-110L480,21l169-54L546-110z"/>
	<path fill="#0092B3" stroke="#0092B3" d="M546-110l103,77l156-81L546-110z"/>
	<path fill="#198AB7" stroke="#198AB7" d="M546-110l259-4l902-16L546-110z"/>
	<path fill="#0079AA" stroke="#0079AA" d="M649-33L480,21l223,34L649-33z"/>
	<path fill="#007CA7" stroke="#007CA7" d="M649-33l54,88l102-169L649-33z"/>
	<path fill="#066EA1" stroke="#066EA1" d="M805-114L703,55l158,25L805-114z"/>
	<path fill="#0D6CA2" stroke="#0D6CA2" d="M805-114l56,194l124-34L805-114z"/>
	<path fill="#117CAA" stroke="#117CAA" d="M805-114L985,46l28-132L805-114z"/>
	<path fill="#198AB5" stroke="#198AB5" d="M805-114l208,28l219-11L805-114z"/>
	<path fill="#2790BF" stroke="#2790BF" d="M805-114l427,17l179-9L805-114z"/>
	<path fill="#3B99C5" stroke="#3B99C5" d="M805-114l606,8l296-24L805-114z"/>
	<path fill="#1A77AB" stroke="#1A77AB" d="M1013-86L985,46l103-98L1013-86z"/>
	<path fill="#238AB8" stroke="#238AB8" d="M1013-86l75,34l144-45L1013-86z"/>
	<path fill="#2066A6" stroke="#2066A6" d="M1088-52L985,46l188,57L1088-52z"/>
	<path fill="#2A6DAE" stroke="#2A6DAE" d="M1088-52l85,155l109-82L1088-52z"/>
	<path fill="#2C83B9" stroke="#2C83B9" d="M1088-52l194,73l-50-118L1088-52z"/>
	<path fill="#3B8FBD" stroke="#3B8FBD" d="M1232-97l50,118l129-127L1232-97z"/>
	<path fill="#417DB4" stroke="#417DB4" d="M1411-106L1282,21l102,90L1411-106z"/>
	<path fill="#4C87B8" stroke="#4C87B8" d="M1411-106l-27,217l143-150L1411-106z"/>
	<path fill="#5DA9C8" stroke="#5DA9C8" d="M1411-106l116,67l180-91L1411-106z"/>
	<path fill="#547AB2" stroke="#547AB2" d="M1527-39l-143,150l177-46L1527-39z"/>
	<path fill="#6587B8" stroke="#6587B8" d="M1527-39l34,104l132-7L1527-39z"/>
	<path fill="#6C9FC4" stroke="#6C9FC4" d="M1527-39l166,97l14-188L1527-39z"/>
	<path fill="#7CA8C8" stroke="#7CA8C8" d="M1707-130l-14,188l133-108L1707-130z"/>
	<path fill="#7FC1D4" stroke="#7FC1D4" d="M1707-130l119,80l245-40L1707-130z"/>
	<path fill="#7F98C1" stroke="#7F98C1" d="M1826-50L1693,58l123-13L1826-50z"/>
	<path fill="#7FA2C6" stroke="#7FA2C6" d="M1826-50l-10,95l221,8L1826-50z"/>
	<path fill="#7FB6D0" stroke="#7FB6D0" d="M1826-50l211,103l34-143L1826-50z"/>
	<path fill="#7F9AC3" stroke="#7F9AC3" d="M2071-90l-34,143l6,222L2071-90z"/>
	<path fill="#7F5092" stroke="#7F5092" d="M2071-90l-28,365l-9,800L2071-90z"/>
	<path fill="#17B1C8" stroke="#17B1C8" d="M-74,73l-29,123L24,38L-74,73z"/>
	<path fill="#1496BC" stroke="#1496BC" d="M24,38l-127,158l155,78L24,38z"/>
	<path fill="#0E99BD" stroke="#0E99BD" d="M24,38l28,236L194,50L24,38z"/>
	<path fill="#0B7AAF" stroke="#0B7AAF" d="M194,50L52,274l136-11L194,50z"/>
	<path fill="#0570AB" stroke="#0570AB" d="M194,50l-6,213l191-30L194,50z"/>
	<path fill="#0480B2" stroke="#0480B2" d="M194,50l185,183l-1-198L194,50z"/>
	<path fill="#0276AD" stroke="#0276AD" d="M378,35l1,198L480,21L378,35z"/>
	<path fill="#015BA1" stroke="#015BA1" d="M480,21L379,233l131,1L480,21z"/>
	<path fill="#01569C" stroke="#01569C" d="M480,21l30,213l137-44L480,21z"/>
	<path fill="#00629F" stroke="#00629F" d="M480,21l167,169l56-135L480,21z"/>
	<path fill="#00468E" stroke="#00468E" d="M703,55l-56,135l120,5L703,55z"/>
	<path fill="#054E92" stroke="#054E92" d="M703,55l64,140l94-115L703,55z"/>
	<path fill="#0D3689" stroke="#0D3689" d="M861,80l-94,115l260,54L861,80z"/>
	<path fill="#134490" stroke="#134490" d="M861,80l166,169L985,46L861,80z"/>
	<path fill="#1B3A8F" stroke="#1B3A8F" d="M985,46l42,203l87-43L985,46z"/>
	<path fill="#214C9A" stroke="#214C9A" d="M985,46l129,160l59-103L985,46z"/>
	<path fill="#2A3996" stroke="#2A3996" d="M1173,103l-59,103l131,53L1173,103z"/>
	<path fill="#35489D" stroke="#35489D" d="M1173,103l72,156l139-148L1173,103z"/>
	<path fill="#3762A8" stroke="#3762A8" d="M1173,103l211,8l-102-90L1173,103z"/>
	<path fill="#413D97" stroke="#413D97" d="M1384,111l-139,148l184-9L1384,111z"/>
	<path fill="#4E4C9D" stroke="#4E4C9D" d="M1384,111l45,139l102-76L1384,111z"/>
	<path fill="#5464A7" stroke="#5464A7" d="M1384,111l147,63l30-109L1384,111z"/>
	<path fill="#6571AE" stroke="#6571AE" d="M1561,65l-30,109l162-116L1561,65z"/>
	<path fill="#6C61A7" stroke="#6C61A7" d="M1693,58l-162,116l163,73L1693,58z"/>
	<path fill="#7B76B1" stroke="#7B76B1" d="M1693,58l1,189l122-202L1693,58z"/>
	<path fill="#7F6BAC" stroke="#7F6BAC" d="M1816,45l-122,202l207-36L1816,45z"/>
	<path fill="#7F89BA" stroke="#7F89BA" d="M1816,45l85,166l136-158L1816,45z"/>
	<path fill="#7F75B2" stroke="#7F75B2" d="M2037,53l-136,158l142,64L2037,53z"/>
	<path fill="#2B76AA" stroke="#2B76AA" d="M-103,196l-31,659l27-290L-103,196z"/>
	<path fill="#1A749E" stroke="#1A749E" d="M-103,196l-4,369l27-171L-103,196z"/>
	<path fill="#167AA9" stroke="#167AA9" d="M-103,196l23,198L52,274L-103,196z"/>
	<path fill="#136699" stroke="#136699" d="M52,274L-80,394l167-27L52,274z"/>
	<path fill="#0D649D" stroke="#0D649D" d="M52,274l35,93l101-104L52,274z"/>
	<path fill="#0A5794" stroke="#0A5794" d="M188,263L87,367l129-8L188,263z"/>
	<path fill="#054C8F" stroke="#054C8F" d="M188,263l28,96l132,4L188,263z"/>
	<path fill="#044D95" stroke="#044D95" d="M188,263l160,100l31-130L188,263z"/>
	<path fill="#023B89" stroke="#023B89" d="M379,233l-31,130l146-33L379,233z"/>
	<path fill="#013D8F" stroke="#013D8F" d="M379,233l115,97l16-96L379,233z"/>
	<path fill="#01297D" stroke="#01297D" d="M510,234l-16,96l164,46L510,234z"/>
	<path fill="#002D83" stroke="#002D83" d="M510,234l148,142l-11-186L510,234z"/>
	<path fill="#00267E" stroke="#00267E" d="M647,190l11,186l109-181L647,190z"/>
	<path fill="#01156D" stroke="#01156D" d="M767,195L658,376l110,20L767,195z"/>
	<path fill="#0B1A76" stroke="#0B1A76" d="M767,195l1,201l259-147L767,195z"/>
	<path fill="#110E6C" stroke="#110E6C" d="M1027,249L768,396l262-64L1027,249z"/>
	<path fill="#1D1F80" stroke="#1D1F80" d="M1027,249l3,83l84-126L1027,249z"/>
	<path fill="#221678" stroke="#221678" d="M1114,206l-84,126l129,80L1114,206z"/>
	<path fill="#291E82" stroke="#291E82" d="M1114,206l45,206l86-153L1114,206z"/>
	<path fill="#2F167A" stroke="#2F167A" d="M1245,259l-86,153l91-58L1245,259z"/>
	<path fill="#3B2786" stroke="#3B2786" d="M1245,259l5,95l179-104L1245,259z"/>
	<path fill="#44227E" stroke="#44227E" d="M1429,250l-179,104l206,36L1429,250z"/>
	<path fill="#552B82" stroke="#552B82" d="M1429,250l27,140l152-49L1429,250z"/>
	<path fill="#593B93" stroke="#593B93" d="M1429,250l179,91l-77-167L1429,250z"/>
	<path fill="#674297" stroke="#674297" d="M1531,174l77,167l86-94L1531,174z"/>
	<path fill="#733888" stroke="#733888" d="M1694,247l-86,94l142,66L1694,247z"/>
	<path fill="#7F418E" stroke="#7F418E" d="M1694,247l56,160l175-84L1694,247z"/>
	<path fill="#7F539E" stroke="#7F539E" d="M1694,247l231,76l-24-112L1694,247z"/>
	<path fill="#7F5AA1" stroke="#7F5AA1" d="M1901,211l24,112l118-48L1901,211z"/>
	<path fill="#7F5399" stroke="#7F5399" d="M2043,275l-118,48l51,13L2043,275z"/>
	<path fill="#7F4C90" stroke="#7F4C90" d="M2043,275l-67,61l6,243L2043,275z"/>
	<path fill="#A350A6" stroke="#A350A6" d="M2043,275l-61,304l44,398L2043,275z"/>
	<path fill="#DC6BB1" stroke="#DC6BB1" d="M2043,275l-17,702l8,98L2043,275z"/>
	<path fill="#1C6B9E" stroke="#1C6B9E" d="M-80,394l-27,171l213-31L-80,394z"/>
	<path fill="#116296" stroke="#116296" d="M-80,394l186,140L87,367L-80,394z"/>
	<path fill="#0C5791" stroke="#0C5791" d="M87,367l19,167l80-67L87,367z"/>
	<path fill="#0A538F" stroke="#0A538F" d="M87,367l99,100l30-108L87,367z"/>
	<path fill="#05478A" stroke="#05478A" d="M216,359l-30,108l162-104L216,359z"/>
	<path fill="#044187" stroke="#044187" d="M348,363L186,467l163,69L348,363z"/>
	<path fill="#023380" stroke="#023380" d="M348,363l1,173l145-206L348,363z"/>
	<path fill="#032B7E" stroke="#032B7E" d="M494,330L349,536l191,32L494,330z"/>
	<path fill="#011F74" stroke="#011F74" d="M494,330l46,238l118-192L494,330z"/>
	<path fill="#081873" stroke="#081873" d="M658,376L540,568l165-1L658,376z"/>
	<path fill="#001067" stroke="#001067" d="M658,376l47,191l63-171L658,376z"/>
	<path fill="#090D69" stroke="#090D69" d="M768,396l-63,171l179-75L768,396z"/>
	<path fill="#0E0A66" stroke="#0E0A66" d="M768,396l116,96l146-160L768,396z"/>
	<path fill="#130866" stroke="#130866" d="M1030,332L884,492l73,14L1030,332z"/>
	<path fill="#1B0B6B" stroke="#1B0B6B" d="M1030,332l-73,174l155,12L1030,332z"/>
	<path fill="#220E70" stroke="#220E70" d="M1030,332l82,186l47-106L1030,332z"/>
	<path fill="#2B1176" stroke="#2B1176" d="M1159,412l-47,106l120-10L1159,412z"/>
	<path fill="#2E1477" stroke="#2E1477" d="M1159,412l73,96l18-154L1159,412z"/>
	<path fill="#391878" stroke="#391878" d="M1250,354l-18,154l167-2L1250,354z"/>
	<path fill="#431D79" stroke="#431D79" d="M1250,354l149,152l57-116L1250,354z"/>
	<path fill="#54247D" stroke="#54247D" d="M1456,390l-57,116l176,37L1456,390z"/>
	<path fill="#5D297E" stroke="#5D297E" d="M1456,390l119,153l33-202L1456,390z"/>
	<path fill="#6A2F82" stroke="#6A2F82" d="M1608,341l-33,202l109-10L1608,341z"/>
	<path fill="#723384" stroke="#723384" d="M1608,341l76,192l66-126L1608,341z"/>
	<path fill="#843A8A" stroke="#843A8A" d="M1750,407l-66,126l166-2L1750,407z"/>
	<path fill="#7F408A" stroke="#7F408A" d="M1750,407l100,124l75-208L1750,407z"/>
	<path fill="#7F468D" stroke="#7F468D" d="M1925,323l-75,208l126-195L1925,323z"/>
	<path fill="#824790" stroke="#824790" d="M1976,336l-126,195l132,48L1976,336z"/>
	<path fill="#5F85B7" stroke="#5F85B7" d="M-107,565l-27,290l51-140L-107,565z"/>
	<path fill="#4374B1" stroke="#4374B1" d="M-107,565l24,150l127-82L-107,565z"/>
	<path fill="#2D65A9" stroke="#2D65A9" d="M-107,565l151,68l62-99L-107,565z"/>
	<path fill="#385FA8" stroke="#385FA8" d="M106,534l-62,99l127,98L106,534z"/>
	<path fill="#284EA1" stroke="#284EA1" d="M106,534l65,197l178-195L106,534z"/>
	<path fill="#114C93" stroke="#114C93" d="M106,534l243,2l-163-69L106,534z"/>
	<path fill="#31479C" stroke="#31479C" d="M349,536L171,731l203-86L349,536z"/>
	<path fill="#1D3092" stroke="#1D3092" d="M349,536l25,109l166-77L349,536z"/>
	<path fill="#2D3091" stroke="#2D3091" d="M540,568l-166,77l120,49L540,568z"/>
	<path fill="#30278A" stroke="#30278A" d="M540,568l-46,126l170-17L540,568z"/>
	<path fill="#221A82" stroke="#221A82" d="M540,568l124,109l41-110L540,568z"/>
	<path fill="#33187C" stroke="#33187C" d="M705,567l-41,110l137,41L705,567z"/>
	<path fill="#240D7A" stroke="#240D7A" d="M705,567l96,151l83-226L705,567z"/>
	<path fill="#310D7B" stroke="#310D7B" d="M884,492l-83,226l185-96L884,492z"/>
	<path fill="#220872" stroke="#220872" d="M884,492l102,130l-29-116L884,492z"/>
	<path fill="#2C0A78" stroke="#2C0A78" d="M957,506l29,116l126-104L957,506z"/>
	<path fill="#420F82" stroke="#420F82" d="M1112,518L986,622l128,62L1112,518z"/>
	<path fill="#3F1184" stroke="#3F1184" d="M1112,518l2,166l118-176L1112,518z"/>
	<path fill="#58198C" stroke="#58198C" d="M1232,508l-118,176l173,16L1232,508z"/>
	<path fill="#531989" stroke="#531989" d="M1232,508l55,192l112-194L1232,508z"/>
	<path fill="#6C228F" stroke="#6C228F" d="M1399,506l-112,194l120-16L1399,506z"/>
	<path fill="#69228D" stroke="#69228D" d="M1399,506l8,178l168-141L1399,506z"/>
	<path fill="#812C93" stroke="#812C93" d="M1575,543l-168,141l218-66L1575,543z"/>
	<path fill="#812F92" stroke="#812F92" d="M1575,543l50,75l59-85L1575,543z"/>
	<path fill="#973698" stroke="#973698" d="M1684,533l-59,85l63,91L1684,533z"/>
	<path fill="#99389A" stroke="#99389A" d="M1684,533l4,176l162-178L1684,533z"/>
	<path fill="#B0469F" stroke="#B0469F" d="M1850,531l-162,178l217,1L1850,531z"/>
	<path fill="#A248A1" stroke="#A248A1" d="M1850,531l55,179l77-131L1850,531z"/>
	<path fill="#B652A5" stroke="#B652A5" d="M1982,579l-77,131l71,6L1982,579z"/>
	<path fill="#D564AD" stroke="#D564AD" d="M1982,579l-6,137l50,261L1982,579z"/>
	<path fill="#7489BA" stroke="#7489BA" d="M-83,715l-51,140l226-88L-83,715z"/>
	<path fill="#5674AF" stroke="#5674AF" d="M-83,715l175,52L44,633L-83,715z"/>
	<path fill="#526AAB" stroke="#526AAB" d="M44,633l48,134l79-36L44,633z"/>
	<path fill="#656FAE" stroke="#656FAE" d="M171,731l-79,36l109,45L171,731z"/>
	<path fill="#6465A9" stroke="#6465A9" d="M171,731l30,81l159-13L171,731z"/>
	<path fill="#4E53A0" stroke="#4E53A0" d="M171,731l189,68l14-154L171,731z"/>
	<path fill="#484298" stroke="#484298" d="M374,645l-14,154l134-105L374,645z"/>
	<path fill="#624A9D" stroke="#624A9D" d="M494,694L360,799l151,72L494,694z"/>
	<path fill="#603C93" stroke="#603C93" d="M494,694l17,177l199-83L494,694z"/>
	<path fill="#482B88" stroke="#482B88" d="M494,694l216,94l-46-111L494,694z"/>
	<path fill="#4C2280" stroke="#4C2280" d="M664,677l46,111l91-70L664,677z"/>
	<path fill="#632C86" stroke="#632C86" d="M801,718l-91,70l55,63L801,718z"/>
	<path fill="#752F89" stroke="#752F89" d="M801,718l-36,133l208,29L801,718z"/>
	<path fill="#5F1E82" stroke="#5F1E82" d="M801,718l172,162l13-258L801,718z"/>
	<path fill="#742689" stroke="#742689" d="M986,622l-13,258l116-65L986,622z"/>
	<path fill="#611B85" stroke="#611B85" d="M986,622l103,193l25-131L986,622z"/>
	<path fill="#862E93" stroke="#862E93" d="M1114,684l-25,131l160,35L1114,684z"/>
	<path fill="#7F2A93" stroke="#7F2A93" d="M1114,684l135,166l38-150L1114,684z"/>
	<path fill="#A03A99" stroke="#A03A99" d="M1287,700l-38,150h138L1287,700z"/>
	<path fill="#933395" stroke="#933395" d="M1287,700l100,150l20-166L1287,700z"/>
	<path fill="#B4439C" stroke="#B4439C" d="M1407,684l-20,166l247-7L1407,684z"/>
	<path fill="#A53A98" stroke="#A53A98" d="M1407,684l227,159l-9-225L1407,684z"/>
	<path fill="#B7439C" stroke="#B7439C" d="M1625,618l9,225l54-134L1625,618z"/>
	<path fill="#DB55A5" stroke="#DB55A5" d="M1688,709l-54,134l139,6L1688,709z"/>
	<path fill="#D554A5" stroke="#D554A5" d="M1688,709l85,140l132-139L1688,709z"/>
	<path fill="#E460AB" stroke="#E460AB" d="M1905,710l-132,139l85-12L1905,710z"/>
	<path fill="#E365AD" stroke="#E365AD" d="M1905,710l-47,127l120-1L1905,710z"/>
	<path fill="#D460AB" stroke="#D460AB" d="M1905,710l73,126l-2-120L1905,710z"/>
	<path fill="#F474B6" stroke="#F474B6" d="M1976,716l2,120l48,141L1976,716z"/>
	<path fill="#99BCD4" stroke="#99BCD4" d="M-134,855l18,312l88-141L-134,855z"/>
	<path fill="#959AC3" stroke="#959AC3" d="M-134,855l106,171L92,767L-134,855z"/>
	<path fill="#909BC3" stroke="#909BC3" d="M92,767l-120,259l132-8L92,767z"/>
	<path fill="#8C8BBC" stroke="#8C8BBC" d="M92,767l12,251l72-103L92,767z"/>
	<path fill="#7B7AB4" stroke="#7B7AB4" d="M92,767l84,148l25-103L92,767z"/>
	<path fill="#857BB5" stroke="#857BB5" d="M201,812l-25,103l143,24L201,812z"/>
	<path fill="#7C6CAD" stroke="#7C6CAD" d="M201,812l118,127l41-140L201,812z"/>
	<path fill="#8161A8" stroke="#8161A8" d="M360,799l-41,140l192-68L360,799z"/>
	<path fill="#8164AA" stroke="#8164AA" d="M511,871l-192,68l194,13L511,871z"/>
	<path fill="#8058A2" stroke="#8058A2" d="M511,871l2,81l115-7L511,871z"/>
	<path fill="#7F4897" stroke="#7F4897" d="M511,871l117,74l82-157L511,871z"/>
	<path fill="#7C3D8F" stroke="#7C3D8F" d="M710,788l-82,157l137-94L710,788z"/>
	<path fill="#804894" stroke="#804894" d="M765,851l-137,94l167,46L765,851z"/>
	<path fill="#884594" stroke="#884594" d="M765,851l30,140l134-38L765,851z"/>
	<path fill="#8D3C91" stroke="#8D3C91" d="M765,851l164,102l44-73L765,851z"/>
	<path fill="#994398" stroke="#994398" d="M973,880l-44,73l228,6L973,880z"/>
	<path fill="#9E3D98" stroke="#9E3D98" d="M973,880l184,79l-68-144L973,880z"/>
	<path fill="#A8409D" stroke="#A8409D" d="M1089,815l68,144l92-109L1089,815z"/>
	<path fill="#B04AA3" stroke="#B04AA3" d="M1249,850l-92,109l141-39L1249,850z"/>
	<path fill="#BB48A1" stroke="#BB48A1" d="M1249,850l49,70l89-70H1249z"/>
	<path fill="#C557A7" stroke="#C557A7" d="M1387,850l-89,70l175,109L1387,850z"/>
	<path fill="#CF60AC" stroke="#CF60AC" d="M1387,850l86,179l52-45L1387,850z"/>
	<path fill="#D859A7" stroke="#D859A7" d="M1387,850l138,134l109-141L1387,850z"/>
	<path fill="#E768B0" stroke="#E768B0" d="M1634,843l-109,141l148-7L1634,843z"/>
	<path fill="#F466AE" stroke="#F466AE" d="M1634,843l39,134l100-128L1634,843z"/>
	<path fill="#FF79B8" stroke="#FF79B8" d="M1773,849l-100,128l257,56L1773,849z"/>
	<path fill="#FF75B6" stroke="#FF75B6" d="M1773,849l157,184l-72-196L1773,849z"/>
	<path fill="#FF79B8" stroke="#FF79B8" d="M1858,837l72,196l48-197L1858,837z"/>
	<path fill="#FF87BF" stroke="#FF87BF" d="M1978,836l-48,197l96-56L1978,836z"/>
	<path fill="#95C4D8" stroke="#95C4D8" d="M-28,1026l-88,141l170-62L-28,1026z"/>
	<path fill="#91B1CF" stroke="#91B1CF" d="M-28,1026l82,79l50-87L-28,1026z"/>
	<path fill="#8CADCE" stroke="#8CADCE" d="M104,1018l-50,87l149,10L104,1018z"/>
	<path fill="#8A9CC5" stroke="#8A9CC5" d="M104,1018l99,97l-27-200L104,1018z"/>
	<path fill="#858EBF" stroke="#858EBF" d="M176,915l27,200l116-176L176,915z"/>
	<path fill="#8494C2" stroke="#8494C2" d="M319,939l-116,176l171,40L319,939z"/>
	<path fill="#827CB7" stroke="#827CB7" d="M319,939l55,216l139-203L319,939z"/>
	<path fill="#807DB7" stroke="#807DB7" d="M513,952l-139,203l162-50L513,952z"/>
	<path fill="#8066A9" stroke="#8066A9" d="M513,952l23,153l92-160L513,952z"/>
	<path fill="#806BAA" stroke="#806BAA" d="M628,945l-92,160h111L628,945z"/>
	<path fill="#805B9F" stroke="#805B9F" d="M628,945l19,160l148-114L628,945z"/>
	<path fill="#8462A2" stroke="#8462A2" d="M795,991l-148,114l217,28L795,991z"/>
	<path fill="#8B569E" stroke="#8B569E" d="M795,991l69,142l65-180L795,991z"/>
	<path fill="#905CA2" stroke="#905CA2" d="M929,953l-65,180l122-3L929,953z"/>
	<path fill="#9953A1" stroke="#9953A1" d="M929,953l57,177l171-171L929,953z"/>
	<path fill="#A25FAB" stroke="#A25FAB" d="M1157,959l-171,171l183-44L1157,959z"/>
	<path fill="#AD57AA" stroke="#AD57AA" d="M1157,959l12,127l129-166L1157,959z"/>
	<path fill="#B364B0" stroke="#B364B0" d="M1298,920l-129,166l134,29L1298,920z"/>
	<path fill="#C166B0" stroke="#C166B0" d="M1298,920l5,195l170-86L1298,920z"/>
	<path fill="#C578B9" stroke="#C578B9" d="M1473,1029l-170,86l85,64L1473,1029z"/>
	<path fill="#D27CBA" stroke="#D27CBA" d="M1473,1029l-85,150l192-98L1473,1029z"/>
	<path fill="#D973B6" stroke="#D973B6" d="M1473,1029l107,52l-55-97L1473,1029z"/>
	<path fill="#E475B6" stroke="#E475B6" d="M1525,984l55,97l93-104L1525,984z"/>
	<path fill="#EB81BD" stroke="#EB81BD" d="M1673,977l-93,104l88,37L1673,977z"/>
	<path fill="#FE87C0" stroke="#FE87C0" d="M1673,977l-5,141l262-85L1673,977z"/>
	<path fill="#FF98C9" stroke="#FF98C9" d="M1930,1033l-262,85l200,54L1930,1033z"/>
	<path fill="#FF9FCC" stroke="#FF9FCC" d="M1930,1033l-62,139l166-97L1930,1033z"/>
	<path fill="#FF97C8" stroke="#FF97C8" d="M1930,1033l104,42l-8-98L1930,1033z"/>
	<path fill="#8087BA" stroke="#8087BA" d="M-116,1167l1504,12l-1014-24L-116,1167z"/>
	<path fill="#8AB5D2" stroke="#8AB5D2" d="M-116,1167l490-12l-171-40L-116,1167z"/>
	<path fill="#90BFD7" stroke="#90BFD7" d="M-116,1167l319-52l-149-10L-116,1167z"/>
	<path fill="#8C6DAA" stroke="#8C6DAA" d="M374,1155l1014,24l-524-46L374,1155z"/>
	<path fill="#8077B0" stroke="#8077B0" d="M374,1155l490-22l-217-28L374,1155z"/>
	<path fill="#8081B8" stroke="#8081B8" d="M374,1155l273-50H536L374,1155z"/>
	<path fill="#9F6FB1" stroke="#9F6FB1" d="M864,1133l524,46l-402-49L864,1133z"/>
	<path fill="#AA70B7" stroke="#AA70B7" d="M986,1130l402,49l-219-93L986,1130z"/>
	<path fill="#B775B9" stroke="#B775B9" d="M1169,1086l219,93l-85-64L1169,1086z"/>
	<path fill="#EC94C6" stroke="#EC94C6" d="M1388,1179l480-7l-200-54L1388,1179z"/>
	<path fill="#DC86BF" stroke="#DC86BF" d="M1388,1179l280-61l-88-37L1388,1179z"/>
</g>
</svg>
