<?xml version="1.0" encoding="utf-8"?>
<!-- Generator: Adobe Illustrator 17.1.0, SVG Export Plug-In . SVG Version: 6.00 Build 0)  -->
<!DOCTYPE svg PUBLIC "-//W3C//DTD SVG 1.1//EN" "http://www.w3.org/Graphics/SVG/1.1/DTD/svg11.dtd">
<svg version="1.1" id="Layer_1" xmlns="http://www.w3.org/2000/svg" xmlns:xlink="http://www.w3.org/1999/xlink" x="0px" y="0px"
	 viewBox="0 0 612 792" enable-background="new 0 0 612 792" xml:space="preserve">
<g>
	<path fill="#00CCD5" stroke="#00CCD5" d="M-6.4,214.8l-17.2,54.5l31.2-11.2L-6.4,214.8z"/>
	<path fill="#00D3D9" stroke="#00D3D9" d="M-6.4,214.8l14,43.4l27.1-36.3L-6.4,214.8z"/>
	<path fill="#00CCD5" stroke="#00CCD5" d="M-6.4,214.8l41.1,7L174,211L-6.4,214.8z"/>
	<path fill="#00BBCD" stroke="#00BBCD" d="M34.7,221.8L7.6,258.1l54.2,3.8L34.7,221.8z"/>
	<path fill="#00B7CC" stroke="#00B7CC" d="M34.7,221.8L61.8,262l28.4-26.8L34.7,221.8z"/>
	<path fill="#00B9CC" stroke="#00B9CC" d="M34.7,221.8l55.5,13.4l42.4-8.3L34.7,221.8z"/>
	<path fill="#00B5CB" stroke="#00B5CB" d="M34.7,221.8l97.9,5.1L174,211L34.7,221.8z"/>
	<path fill="#00A0C1" stroke="#00A0C1" d="M90.2,235.2L61.8,262l58.6-4.8L90.2,235.2z"/>
	<path fill="#00A2C2" stroke="#00A2C2" d="M90.2,235.2l30.3,22l12.1-30.3L90.2,235.2z"/>
	<path fill="#0093BB" stroke="#0093BB" d="M132.6,226.9l-12.1,30.3l32.5-4.5L132.6,226.9z"/>
	<path fill="#009BBE" stroke="#009BBE" d="M132.6,226.9l20.4,25.8l21-41.8L132.6,226.9z"/>
	<path fill="#0090B6" stroke="#0090B6" d="M174,211l-21,41.8l53.9-17.2L174,211z"/>
	<path fill="#0092B3" stroke="#0092B3" d="M174,211l32.8,24.5l49.7-25.8L174,211z"/>
	<path fill="#008AB7" stroke="#008AB7" d="M174,211l82.6-1.3l287.5-5.1L174,211z"/>
	<path fill="#0079AA" stroke="#0079AA" d="M206.9,235.5L153,252.7l71.1,10.8L206.9,235.5z"/>
	<path fill="#007CA7" stroke="#007CA7" d="M206.9,235.5l17.2,28l32.5-53.9L206.9,235.5z"/>
	<path fill="#006EA1" stroke="#006EA1" d="M256.6,209.7l-32.5,53.9l50.4,8L256.6,209.7z"/>
	<path fill="#006CA2" stroke="#006CA2" d="M256.6,209.7l17.9,61.8l39.5-10.8L256.6,209.7z"/>
	<path fill="#007CAA" stroke="#007CAA" d="M256.6,209.7l57.4,51l8.9-42.1L256.6,209.7z"/>
	<path fill="#008AB5" stroke="#008AB5" d="M256.6,209.7l66.3,8.9l69.8-3.5L256.6,209.7z"/>
	<path fill="#0090BF" stroke="#0090BF" d="M256.6,209.7l136.1,5.4l57.1-2.9L256.6,209.7z"/>
	<path fill="#0099C5" stroke="#0099C5" d="M256.6,209.7l193.2,2.5l94.4-7.6L256.6,209.7z"/>
	<path fill="#0077AB" stroke="#0077AB" d="M322.9,218.6l-8.9,42.1l32.8-31.2L322.9,218.6z"/>
	<path fill="#008AB8" stroke="#008AB8" d="M322.9,218.6l23.9,10.8l45.9-14.3L322.9,218.6z"/>
	<path fill="#0066A6" stroke="#0066A6" d="M346.8,229.5L314,260.7l59.9,18.2L346.8,229.5z"/>
	<path fill="#006DAE" stroke="#006DAE" d="M346.8,229.5l27.1,49.4l34.7-26.1L346.8,229.5z"/>
	<path fill="#0083B9" stroke="#0083B9" d="M346.8,229.5l61.8,23.3l-15.9-37.6L346.8,229.5z"/>
	<path fill="#008FBD" stroke="#008FBD" d="M392.7,215.1l15.9,37.6l41.1-40.5L392.7,215.1z"/>
	<path fill="#007DB4" stroke="#007DB4" d="M449.8,212.2l-41.1,40.5l32.5,28.7L449.8,212.2z"/>
	<path fill="#0087B8" stroke="#0087B8" d="M449.8,212.2l-8.6,69.2l45.6-47.8L449.8,212.2z"/>
	<path fill="#00A9C8" stroke="#00A9C8" d="M449.8,212.2l37,21.4l57.4-29L449.8,212.2z"/>
	<path fill="#007AB2" stroke="#007AB2" d="M486.7,233.6l-45.6,47.8l56.4-14.7L486.7,233.6z"/>
	<path fill="#0087B8" stroke="#0087B8" d="M486.7,233.6l10.8,33.1l42.1-2.2L486.7,233.6z"/>
	<path fill="#009FC4" stroke="#009FC4" d="M486.7,233.6l52.9,30.9l4.5-59.9L486.7,233.6z"/>
	<path fill="#00A8C8" stroke="#00A8C8" d="M544.1,204.6l-4.5,59.9l42.4-34.4L544.1,204.6z"/>
	<path fill="#00C1D4" stroke="#00C1D4" d="M544.1,204.6l37.9,25.5l78.1-12.8L544.1,204.6z"/>
	<path fill="#0098C1" stroke="#0098C1" d="M582,230.1l-42.4,34.4l39.2-4.1L582,230.1z"/>
	<path fill="#00A2C6" stroke="#00A2C6" d="M582,230.1l-3.2,30.3l70.4,2.6L582,230.1z"/>
	<path fill="#00B6D0" stroke="#00B6D0" d="M582,230.1l67.3,32.8l10.8-45.6L582,230.1z"/>
	<path fill="#009AC3" stroke="#009AC3" d="M660.1,217.3l-10.8,45.6l1.9,70.8L660.1,217.3z"/>
	<path fill="#005092" stroke="#005092" d="M660.1,217.3l-8.9,116.3l-2.9,255L660.1,217.3z"/>
	<path fill="#00B1C8" stroke="#00B1C8" d="M-23.6,269.3l-9.2,39.2l40.5-50.4L-23.6,269.3z"/>
	<path fill="#0096BC" stroke="#0096BC" d="M7.6,258.1l-40.5,50.4l49.4,24.9L7.6,258.1z"/>
	<path fill="#0099BD" stroke="#0099BD" d="M7.6,258.1l8.9,75.2L61.8,262L7.6,258.1z"/>
	<path fill="#007AAF" stroke="#007AAF" d="M61.8,262l-45.3,71.4l43.3-3.5L61.8,262z"/>
	<path fill="#0070AB" stroke="#0070AB" d="M61.8,262l-1.9,67.9l60.9-9.6L61.8,262z"/>
	<path fill="#0080B2" stroke="#0080B2" d="M61.8,262l59,58.3l-0.3-63.1L61.8,262z"/>
	<path fill="#0076AD" stroke="#0076AD" d="M120.5,257.2l0.3,63.1l32.2-67.6L120.5,257.2z"/>
	<path fill="#005BA1" stroke="#005BA1" d="M153,252.7l-32.2,67.6l41.8,0.3L153,252.7z"/>
	<path fill="#00569C" stroke="#00569C" d="M153,252.7l9.6,67.9l43.7-14L153,252.7z"/>
	<path fill="#00629F" stroke="#00629F" d="M153,252.7l53.2,53.9l17.9-43L153,252.7z"/>
	<path fill="#00468E" stroke="#00468E" d="M224.1,263.6l-17.9,43l38.3,1.6L224.1,263.6z"/>
	<path fill="#004E92" stroke="#004E92" d="M224.1,263.6l20.4,44.6l30-36.7L224.1,263.6z"/>
	<path fill="#003689" stroke="#003689" d="M274.4,271.5l-30,36.7l82.9,17.2L274.4,271.5z"/>
	<path fill="#004490" stroke="#004490" d="M274.4,271.5l52.9,53.9L314,260.7L274.4,271.5z"/>
	<path fill="#003A8F" stroke="#003A8F" d="M314,260.7l13.4,64.7l27.7-13.7L314,260.7z"/>
	<path fill="#004C9A" stroke="#004C9A" d="M314,260.7l41.1,51l18.8-32.8L314,260.7z"/>
	<path fill="#003996" stroke="#003996" d="M373.9,278.9l-18.8,32.8l41.8,16.9L373.9,278.9z"/>
	<path fill="#00489D" stroke="#00489D" d="M373.9,278.9l23,49.7l44.3-47.2L373.9,278.9z"/>
	<path fill="#0062A8" stroke="#0062A8" d="M373.9,278.9l67.3,2.5l-32.5-28.7L373.9,278.9z"/>
	<path fill="#003D97" stroke="#003D97" d="M441.1,281.4l-44.3,47.2l58.6-2.9L441.1,281.4z"/>
	<path fill="#004C9D" stroke="#004C9D" d="M441.1,281.4l14.3,44.3l32.5-24.2L441.1,281.4z"/>
	<path fill="#0064A7" stroke="#0064A7" d="M441.1,281.4l46.9,20.1l9.6-34.7L441.1,281.4z"/>
	<path fill="#0071AE" stroke="#0071AE" d="M497.6,266.7l-9.6,34.7l51.6-37L497.6,266.7z"/>
	<path fill="#0061A7" stroke="#0061A7" d="M539.6,264.5l-51.6,37l52,23.3L539.6,264.5z"/>
	<path fill="#0076B1" stroke="#0076B1" d="M539.6,264.5l0.3,60.2l38.9-64.4L539.6,264.5z"/>
	<path fill="#006BAC" stroke="#006BAC" d="M578.8,260.4L540,324.8l66-11.5L578.8,260.4z"/>
	<path fill="#0089BA" stroke="#0089BA" d="M578.8,260.4l27.1,52.9l43.4-50.4L578.8,260.4z"/>
	<path fill="#0075B2" stroke="#0075B2" d="M649.3,262.9l-43.4,50.4l45.3,20.4L649.3,262.9z"/>
	<path fill="#0076AA" stroke="#0076AA" d="M-32.8,308.5l-9.9,210.1l8.6-92.4L-32.8,308.5z"/>
	<path fill="#00749E" stroke="#00749E" d="M-32.8,308.5l-1.3,117.6l8.6-54.5L-32.8,308.5z"/>
	<path fill="#007AA9" stroke="#007AA9" d="M-32.8,308.5l7.3,63.1l42.1-38.3L-32.8,308.5z"/>
	<path fill="#006699" stroke="#006699" d="M16.6,333.4l-42.1,38.3l53.2-8.6L16.6,333.4z"/>
	<path fill="#00649D" stroke="#00649D" d="M16.6,333.4L27.7,363l32.2-33.1L16.6,333.4z"/>
	<path fill="#005794" stroke="#005794" d="M59.9,329.9L27.7,363l41.1-2.5L59.9,329.9z"/>
	<path fill="#004C8F" stroke="#004C8F" d="M59.9,329.9l8.9,30.6l42.1,1.3L59.9,329.9z"/>
	<path fill="#004D95" stroke="#004D95" d="M59.9,329.9l51,31.9l9.9-41.4L59.9,329.9z"/>
	<path fill="#003B89" stroke="#003B89" d="M120.8,320.3l-9.9,41.4l46.5-10.5L120.8,320.3z"/>
	<path fill="#003D8F" stroke="#003D8F" d="M120.8,320.3l36.7,30.9l5.1-30.6L120.8,320.3z"/>
	<path fill="#00297D" stroke="#00297D" d="M162.6,320.6l-5.1,30.6l52.3,14.7L162.6,320.6z"/>
	<path fill="#002D83" stroke="#002D83" d="M162.6,320.6l47.2,45.3l-3.5-59.3L162.6,320.6z"/>
	<path fill="#00267E" stroke="#00267E" d="M206.2,306.6l3.5,59.3l34.7-57.7L206.2,306.6z"/>
	<path fill="#00156D" stroke="#00156D" d="M244.5,308.2l-34.7,57.7l35.1,6.4L244.5,308.2z"/>
	<path fill="#001A76" stroke="#001A76" d="M244.5,308.2l0.3,64.1l82.6-46.9L244.5,308.2z"/>
	<path fill="#000E6C" stroke="#000E6C" d="M327.4,325.4l-82.6,46.9l83.5-20.4L327.4,325.4z"/>
	<path fill="#001F80" stroke="#001F80" d="M327.4,325.4l1,26.5l26.8-40.2L327.4,325.4z"/>
	<path fill="#001678" stroke="#001678" d="M355.1,311.7l-26.8,40.2l41.1,25.5L355.1,311.7z"/>
	<path fill="#001E82" stroke="#001E82" d="M355.1,311.7l14.3,65.7l27.4-48.8L355.1,311.7z"/>
	<path fill="#00167A" stroke="#00167A" d="M396.8,328.6l-27.4,48.8l29-18.5L396.8,328.6z"/>
	<path fill="#002786" stroke="#002786" d="M396.8,328.6l1.6,30.3l57.1-33.2L396.8,328.6z"/>
	<path fill="#00227E" stroke="#00227E" d="M455.5,325.7l-57.1,33.2l65.7,11.5L455.5,325.7z"/>
	<path fill="#002B82" stroke="#002B82" d="M455.5,325.7l8.6,44.6l48.4-15.6L455.5,325.7z"/>
	<path fill="#003B93" stroke="#003B93" d="M455.5,325.7l57.1,29L488,301.5L455.5,325.7z"/>
	<path fill="#004297" stroke="#004297" d="M488,301.5l24.5,53.2l27.4-30L488,301.5z"/>
	<path fill="#003888" stroke="#003888" d="M540,324.8l-27.4,30l45.3,21L540,324.8z"/>
	<path fill="#00418E" stroke="#00418E" d="M540,324.8l17.9,51l55.8-26.8L540,324.8z"/>
	<path fill="#00539E" stroke="#00539E" d="M540,324.8l73.6,24.2l-7.7-35.7L540,324.8z"/>
	<path fill="#005AA1" stroke="#005AA1" d="M605.9,313.3l7.7,35.7l37.6-15.3L605.9,313.3z"/>
	<path fill="#005399" stroke="#005399" d="M651.2,333.7L613.6,349l16.3,4.1L651.2,333.7z"/>
	<path fill="#004C90" stroke="#004C90" d="M651.2,333.7l-21.4,19.4l1.9,77.5L651.2,333.7z"/>
	<path fill="#0050A6" stroke="#0050A6" d="M651.2,333.7l-19.4,96.9l14,126.9L651.2,333.7z"/>
	<path fill="#006BB1" stroke="#006BB1" d="M651.2,333.7l-5.4,223.8l2.5,31.2L651.2,333.7z"/>
	<path fill="#006B9E" stroke="#006B9E" d="M-25.5,371.6l-8.6,54.5l67.9-9.9L-25.5,371.6z"/>
	<path fill="#006296" stroke="#006296" d="M-25.5,371.6l59.3,44.6L27.7,363L-25.5,371.6z"/>
	<path fill="#005791" stroke="#005791" d="M27.7,363l6.1,53.2l25.5-21.4L27.7,363z"/>
	<path fill="#00538F" stroke="#00538F" d="M27.7,363l31.6,31.9l9.6-34.4L27.7,363z"/>
	<path fill="#00478A" stroke="#00478A" d="M68.8,360.5l-9.6,34.4l51.6-33.1L68.8,360.5z"/>
	<path fill="#004187" stroke="#004187" d="M110.9,361.7l-51.6,33.1l52,22L110.9,361.7z"/>
	<path fill="#003380" stroke="#003380" d="M110.9,361.7l0.3,55.1l46.2-65.7L110.9,361.7z"/>
	<path fill="#002B7E" stroke="#002B7E" d="M157.5,351.2l-46.2,65.7l60.9,10.2L157.5,351.2z"/>
	<path fill="#001F74" stroke="#001F74" d="M157.5,351.2l14.7,75.9l37.6-61.2L157.5,351.2z"/>
	<path fill="#001873" stroke="#001873" d="M209.7,365.9l-37.6,61.2l52.6-0.3L209.7,365.9z"/>
	<path fill="#001067" stroke="#001067" d="M209.7,365.9l15,60.9l20.1-54.5L209.7,365.9z"/>
	<path fill="#000D69" stroke="#000D69" d="M244.8,372.3l-20.1,54.5l57.1-23.9L244.8,372.3z"/>
	<path fill="#000A66" stroke="#000A66" d="M244.8,372.3l37,30.6l46.5-51L244.8,372.3z"/>
	<path fill="#000866" stroke="#000866" d="M328.3,351.9l-46.5,51l23.3,4.5L328.3,351.9z"/>
	<path fill="#000B6B" stroke="#000B6B" d="M328.3,351.9L305,407.3l49.4,3.8L328.3,351.9z"/>
	<path fill="#000E70" stroke="#000E70" d="M328.3,351.9l26.1,59.3l15-33.8L328.3,351.9z"/>
	<path fill="#001176" stroke="#001176" d="M369.4,377.4l-15,33.8l38.3-3.2L369.4,377.4z"/>
	<path fill="#001477" stroke="#001477" d="M369.4,377.4l23.3,30.6l5.7-49.1L369.4,377.4z"/>
	<path fill="#001878" stroke="#001878" d="M398.4,358.9l-5.7,49.1l53.2-0.6L398.4,358.9z"/>
	<path fill="#001D79" stroke="#001D79" d="M398.4,358.9l47.5,48.4l18.2-37L398.4,358.9z"/>
	<path fill="#00247D" stroke="#00247D" d="M464.1,370.3l-18.2,37l56.1,11.8L464.1,370.3z"/>
	<path fill="#00297E" stroke="#00297E" d="M464.1,370.3l37.9,48.8l10.5-64.4L464.1,370.3z"/>
	<path fill="#002F82" stroke="#002F82" d="M512.5,354.7L502,419.1l34.7-3.2L512.5,354.7z"/>
	<path fill="#003384" stroke="#003384" d="M512.5,354.7l24.2,61.2l21-40.2L512.5,354.7z"/>
	<path fill="#003A8A" stroke="#003A8A" d="M557.8,375.8l-21,40.2l52.9-0.6L557.8,375.8z"/>
	<path fill="#00408A" stroke="#00408A" d="M557.8,375.8l31.9,39.5l23.9-66.3L557.8,375.8z"/>
	<path fill="#00468D" stroke="#00468D" d="M613.6,349l-23.9,66.3l40.2-62.2L613.6,349z"/>
	<path fill="#004790" stroke="#004790" d="M629.8,353.1l-40.2,62.2l42.1,15.3L629.8,353.1z"/>
	<path fill="#0085B7" stroke="#0085B7" d="M-34.1,426.1l-8.6,92.4l16.3-44.6L-34.1,426.1z"/>
	<path fill="#0074B1" stroke="#0074B1" d="M-34.1,426.1l7.7,47.8L14,447.8L-34.1,426.1z"/>
	<path fill="#0065A9" stroke="#0065A9" d="M-34.1,426.1L14,447.8l19.8-31.6L-34.1,426.1z"/>
	<path fill="#005FA8" stroke="#005FA8" d="M33.8,416.2L14,447.8L54.5,479L33.8,416.2z"/>
	<path fill="#004EA1" stroke="#004EA1" d="M33.8,416.2L54.5,479l56.7-62.2L33.8,416.2z"/>
	<path fill="#004C93" stroke="#004C93" d="M33.8,416.2l77.5,0.6l-52-22L33.8,416.2z"/>
	<path fill="#00479C" stroke="#00479C" d="M111.2,416.9L54.5,479l64.7-27.4L111.2,416.9z"/>
	<path fill="#003092" stroke="#003092" d="M111.2,416.9l8,34.7l52.9-24.5L111.2,416.9z"/>
	<path fill="#003091" stroke="#003091" d="M172.1,427.1l-52.9,24.5l38.2,15.6L172.1,427.1z"/>
	<path fill="#00278A" stroke="#00278A" d="M172.1,427.1l-14.7,40.2l54.2-5.4L172.1,427.1z"/>
	<path fill="#001A82" stroke="#001A82" d="M172.1,427.1l39.5,34.7l13.1-35.1L172.1,427.1z"/>
	<path fill="#00187C" stroke="#00187C" d="M224.7,426.8l-13.1,35.1l43.7,13.1L224.7,426.8z"/>
	<path fill="#000D7A" stroke="#000D7A" d="M224.7,426.8l30.6,48.1l26.5-72L224.7,426.8z"/>
	<path fill="#000D7B" stroke="#000D7B" d="M281.8,402.9l-26.5,72l59-30.6L281.8,402.9z"/>
	<path fill="#000872" stroke="#000872" d="M281.8,402.9l32.5,41.4l-9.2-37L281.8,402.9z"/>
	<path fill="#000A78" stroke="#000A78" d="M305,407.3l9.2,37l40.2-33.1L305,407.3z"/>
	<path fill="#000F82" stroke="#000F82" d="M354.4,411.1l-40.2,33.1l40.8,19.8L354.4,411.1z"/>
	<path fill="#001184" stroke="#001184" d="M354.4,411.1l0.6,52.9l37.6-56.1L354.4,411.1z"/>
	<path fill="#00198C" stroke="#00198C" d="M392.7,408l-37.6,56.1l55.1,5.1L392.7,408z"/>
	<path fill="#001989" stroke="#001989" d="M392.7,408l17.5,61.2l35.7-61.8L392.7,408z"/>
	<path fill="#00228F" stroke="#00228F" d="M445.9,407.3l-35.7,61.8l38.3-5.1L445.9,407.3z"/>
	<path fill="#00228D" stroke="#00228D" d="M445.9,407.3l2.5,56.7l53.6-44.9L445.9,407.3z"/>
	<path fill="#002C93" stroke="#002C93" d="M502,419.1l-53.6,44.9l69.5-21L502,419.1z"/>
	<path fill="#002F92" stroke="#002F92" d="M502,419.1L518,443l18.8-27.1L502,419.1z"/>
	<path fill="#003698" stroke="#003698" d="M536.8,415.9L518,443l20.1,29L536.8,415.9z"/>
	<path fill="#00389A" stroke="#00389A" d="M536.8,415.9L538,472l51.6-56.7L536.8,415.9z"/>
	<path fill="#00469F" stroke="#00469F" d="M589.7,415.3L538,472l69.2,0.3L589.7,415.3z"/>
	<path fill="#0048A1" stroke="#0048A1" d="M589.7,415.3l17.5,57.1l24.5-41.8L589.7,415.3z"/>
	<path fill="#0052A5" stroke="#0052A5" d="M631.8,430.6l-24.5,41.8l22.6,1.9L631.8,430.6z"/>
	<path fill="#0064AD" stroke="#0064AD" d="M631.8,430.6l-1.9,43.7l15.9,83.2L631.8,430.6z"/>
	<path fill="#0089BA" stroke="#0089BA" d="M-26.5,473.9l-16.3,44.6l72-28.1L-26.5,473.9z"/>
	<path fill="#0074AF" stroke="#0074AF" d="M-26.5,473.9l55.8,16.6L14,447.8L-26.5,473.9z"/>
	<path fill="#006AAB" stroke="#006AAB" d="M14,447.8l15.3,42.7L54.5,479L14,447.8z"/>
	<path fill="#006FAE" stroke="#006FAE" d="M54.5,479l-25.2,11.5l34.7,14.3L54.5,479z"/>
	<path fill="#0065A9" stroke="#0065A9" d="M54.5,479l9.6,25.8l50.7-4.1L54.5,479z"/>
	<path fill="#0053A0" stroke="#0053A0" d="M54.5,479l60.2,21.7l4.5-49.1L54.5,479z"/>
	<path fill="#004298" stroke="#004298" d="M119.2,451.6l-4.5,49.1l42.7-33.5L119.2,451.6z"/>
	<path fill="#004A9D" stroke="#004A9D" d="M157.5,467.2l-42.7,33.5l48.1,22.9L157.5,467.2z"/>
	<path fill="#003C93" stroke="#003C93" d="M157.5,467.2l5.4,56.4l63.4-26.5L157.5,467.2z"/>
	<path fill="#002B88" stroke="#002B88" d="M157.5,467.2l68.9,30l-14.7-35.4L157.5,467.2z"/>
	<path fill="#002280" stroke="#002280" d="M211.6,461.8l14.7,35.4l29-22.3L211.6,461.8z"/>
	<path fill="#002C86" stroke="#002C86" d="M255.3,474.9l-29,22.3l17.5,20.1L255.3,474.9z"/>
	<path fill="#002F89" stroke="#002F89" d="M255.3,474.9l-11.5,42.4l66.3,9.2L255.3,474.9z"/>
	<path fill="#001E82" stroke="#001E82" d="M255.3,474.9l54.8,51.6l4.1-82.2L255.3,474.9z"/>
	<path fill="#002689" stroke="#002689" d="M314.3,444.3l-4.1,82.2l37-20.7L314.3,444.3z"/>
	<path fill="#001B85" stroke="#001B85" d="M314.3,444.3l32.8,61.5l8-41.8L314.3,444.3z"/>
	<path fill="#002E93" stroke="#002E93" d="M355.1,464.1l-8,41.8l51,11.2L355.1,464.1z"/>
	<path fill="#002A93" stroke="#002A93" d="M355.1,464.1l43,52.9l12.1-47.8L355.1,464.1z"/>
	<path fill="#003A99" stroke="#003A99" d="M410.2,469.2L398.1,517h44L410.2,469.2z"/>
	<path fill="#003395" stroke="#003395" d="M410.2,469.2l31.9,47.8l6.4-52.9L410.2,469.2z"/>
	<path fill="#00439C" stroke="#00439C" d="M448.5,464.1l-6.4,52.9l78.7-2.2L448.5,464.1z"/>
	<path fill="#003A98" stroke="#003A98" d="M448.5,464.1l72.4,50.7L518,443L448.5,464.1z"/>
	<path fill="#00439C" stroke="#00439C" d="M518,443l2.9,71.7L538,472L518,443z"/>
	<path fill="#0055A5" stroke="#0055A5" d="M538,472l-17.2,42.7l44.3,1.9L538,472z"/>
	<path fill="#0054A5" stroke="#0054A5" d="M538,472l27.1,44.6l42.1-44.3L538,472z"/>
	<path fill="#0060AB" stroke="#0060AB" d="M607.2,472.3l-42.1,44.3l27.1-3.8L607.2,472.3z"/>
	<path fill="#0065AD" stroke="#0065AD" d="M607.2,472.3l-15,40.5l38.3-0.3L607.2,472.3z"/>
	<path fill="#0060AB" stroke="#0060AB" d="M607.2,472.3l23.3,40.2l-0.6-38.3L607.2,472.3z"/>
	<path fill="#0074B6" stroke="#0074B6" d="M629.8,474.3l0.6,38.3l15.3,44.9L629.8,474.3z"/>
	<path fill="#00BCD4" stroke="#00BCD4" d="M-42.7,518.6L-37,618l28-44.9L-42.7,518.6z"/>
	<path fill="#009AC3" stroke="#009AC3" d="M-42.7,518.6l33.8,54.5l38.3-82.6L-42.7,518.6z"/>
	<path fill="#009BC3" stroke="#009BC3" d="M29.3,490.5l-38.3,82.6l42.1-2.5L29.3,490.5z"/>
	<path fill="#008BBC" stroke="#008BBC" d="M29.3,490.5l3.8,80l23-32.8L29.3,490.5z"/>
	<path fill="#007AB4" stroke="#007AB4" d="M29.3,490.5l26.8,47.2l8-32.8L29.3,490.5z"/>
	<path fill="#007BB5" stroke="#007BB5" d="M64.1,504.9l-8,32.8l45.6,7.6L64.1,504.9z"/>
	<path fill="#006CAD" stroke="#006CAD" d="M64.1,504.9l37.6,40.5l13.1-44.6L64.1,504.9z"/>
	<path fill="#0061A8" stroke="#0061A8" d="M114.8,500.7l-13.1,44.6l61.2-21.7L114.8,500.7z"/>
	<path fill="#0064AA" stroke="#0064AA" d="M162.9,523.7l-61.2,21.7l61.8,4.1L162.9,523.7z"/>
	<path fill="#0058A2" stroke="#0058A2" d="M162.9,523.7l0.6,25.8l36.7-2.2L162.9,523.7z"/>
	<path fill="#004897" stroke="#004897" d="M162.9,523.7l37.3,23.6l26.1-50L162.9,523.7z"/>
	<path fill="#003D8F" stroke="#003D8F" d="M226.3,497.2l-26.1,50l43.7-30L226.3,497.2z"/>
	<path fill="#004894" stroke="#004894" d="M243.8,517.3l-43.7,30l53.2,14.7L243.8,517.3z"/>
	<path fill="#004594" stroke="#004594" d="M243.8,517.3l9.6,44.6l42.7-12.1L243.8,517.3z"/>
	<path fill="#003C91" stroke="#003C91" d="M243.8,517.3l52.3,32.5l14-23.3L243.8,517.3z"/>
	<path fill="#004398" stroke="#004398" d="M310.1,526.5l-14,23.3l72.7,1.9L310.1,526.5z"/>
	<path fill="#003D98" stroke="#003D98" d="M310.1,526.5l58.6,25.2l-21.7-45.9L310.1,526.5z"/>
	<path fill="#00409D" stroke="#00409D" d="M347.1,505.8l21.7,45.9l29.3-34.7L347.1,505.8z"/>
	<path fill="#004AA3" stroke="#004AA3" d="M398.1,517l-29.3,34.7l44.9-12.4L398.1,517z"/>
	<path fill="#0048A1" stroke="#0048A1" d="M398.1,517l15.6,22.3l28.4-22.3H398.1z"/>
	<path fill="#0057A7" stroke="#0057A7" d="M442.1,517l-28.4,22.3l55.8,34.7L442.1,517z"/>
	<path fill="#0060AC" stroke="#0060AC" d="M442.1,517l27.4,57.1l16.6-14.3L442.1,517z"/>
	<path fill="#0059A7" stroke="#0059A7" d="M442.1,517l44,42.7l34.7-44.9L442.1,517z"/>
	<path fill="#0068B0" stroke="#0068B0" d="M520.8,514.7l-34.7,44.9l47.2-2.2L520.8,514.7z"/>
	<path fill="#0066AE" stroke="#0066AE" d="M520.8,514.7l12.4,42.7l31.9-40.8L520.8,514.7z"/>
	<path fill="#0079B8" stroke="#0079B8" d="M565.1,516.6l-31.9,40.8l81.9,17.9L565.1,516.6z"/>
	<path fill="#0075B6" stroke="#0075B6" d="M565.1,516.6l50,58.7l-23-62.5L565.1,516.6z"/>
	<path fill="#0079B8" stroke="#0079B8" d="M592.2,512.8l23,62.5l15.3-62.8L592.2,512.8z"/>
	<path fill="#0087BF" stroke="#0087BF" d="M630.5,512.5l-15.3,62.8l30.6-17.9L630.5,512.5z"/>
	<path fill="#00C4D8" stroke="#00C4D8" d="M-8.9,573.1L-37,618l54.2-19.8L-8.9,573.1z"/>
	<path fill="#00B1CF" stroke="#00B1CF" d="M-8.9,573.1l26.1,25.2l15.9-27.7L-8.9,573.1z"/>
	<path fill="#00ADCE" stroke="#00ADCE" d="M33.1,570.5l-15.9,27.7l47.5,3.2L33.1,570.5z"/>
	<path fill="#009CC5" stroke="#009CC5" d="M33.1,570.5l31.6,30.9l-8.6-63.8L33.1,570.5z"/>
	<path fill="#008EBF" stroke="#008EBF" d="M56.1,537.7l8.6,63.8l37-56.1L56.1,537.7z"/>
	<path fill="#0094C2" stroke="#0094C2" d="M101.7,545.3l-37,56.1l54.5,12.8L101.7,545.3z"/>
	<path fill="#007CB7" stroke="#007CB7" d="M101.7,545.3l17.5,68.9l44.3-64.7L101.7,545.3z"/>
	<path fill="#007DB7" stroke="#007DB7" d="M163.5,549.5l-44.3,64.7l51.6-15.9L163.5,549.5z"/>
	<path fill="#0066A9" stroke="#0066A9" d="M163.5,549.5l7.3,48.8l29.3-51L163.5,549.5z"/>
	<path fill="#006BAA" stroke="#006BAA" d="M200.2,547.2l-29.3,51h35.4L200.2,547.2z"/>
	<path fill="#005B9F" stroke="#005B9F" d="M200.2,547.2l6.1,51l47.2-36.3L200.2,547.2z"/>
	<path fill="#0062A2" stroke="#0062A2" d="M253.4,561.9l-47.2,36.3l69.2,8.9L253.4,561.9z"/>
	<path fill="#00569E" stroke="#00569E" d="M253.4,561.9l22,45.3l20.7-57.4L253.4,561.9z"/>
	<path fill="#005CA2" stroke="#005CA2" d="M296.1,549.8l-20.7,57.4l38.9-1L296.1,549.8z"/>
	<path fill="#0053A1" stroke="#0053A1" d="M296.1,549.8l18.2,56.4l54.5-54.5L296.1,549.8z"/>
	<path fill="#005FAB" stroke="#005FAB" d="M368.8,551.7l-54.5,54.5l58.3-14L368.8,551.7z"/>
	<path fill="#0057AA" stroke="#0057AA" d="M368.8,551.7l3.8,40.5l41.1-52.9L368.8,551.7z"/>
	<path fill="#0064B0" stroke="#0064B0" d="M413.7,539.3l-41.1,52.9l42.7,9.2L413.7,539.3z"/>
	<path fill="#0066B0" stroke="#0066B0" d="M413.7,539.3l1.6,62.2l54.2-27.4L413.7,539.3z"/>
	<path fill="#0078B9" stroke="#0078B9" d="M469.5,574l-54.2,27.4l27.1,20.4L469.5,574z"/>
	<path fill="#007CBA" stroke="#007CBA" d="M469.5,574l-27.1,47.8l61.2-31.2L469.5,574z"/>
	<path fill="#0073B6" stroke="#0073B6" d="M469.5,574l34.1,16.6l-17.5-30.9L469.5,574z"/>
	<path fill="#0075B6" stroke="#0075B6" d="M486.1,559.7l17.5,30.9l29.6-33.2L486.1,559.7z"/>
	<path fill="#0081BD" stroke="#0081BD" d="M533.3,557.4l-29.6,33.2l28,11.8L533.3,557.4z"/>
	<path fill="#0087C0" stroke="#0087C0" d="M533.3,557.4l-1.6,44.9l83.5-27.1L533.3,557.4z"/>
	<path fill="#0098C9" stroke="#0098C9" d="M615.2,575.3l-83.5,27.1l63.8,17.2L615.2,575.3z"/>
	<path fill="#009FCC" stroke="#009FCC" d="M615.2,575.3l-19.8,44.3l52.9-30.9L615.2,575.3z"/>
	<path fill="#0097C8" stroke="#0097C8" d="M615.2,575.3l33.1,13.4l-2.5-31.2L615.2,575.3z"/>
	<path fill="#0087BA" stroke="#0087BA" d="M-37,618l479.4,3.8l-323.2-7.6L-37,618z"/>
	<path fill="#00B5D2" stroke="#00B5D2" d="M-37,618l156.2-3.8l-54.5-12.8L-37,618z"/>
	<path fill="#00BFD7" stroke="#00BFD7" d="M-37,618l101.7-16.6l-47.5-3.2L-37,618z"/>
	<path fill="#006DAA" stroke="#006DAA" d="M119.2,614.2l323.2,7.6l-167-14.7L119.2,614.2z"/>
	<path fill="#0077B0" stroke="#0077B0" d="M119.2,614.2l156.2-7l-69.2-8.9L119.2,614.2z"/>
	<path fill="#0081B8" stroke="#0081B8" d="M119.2,614.2l87-15.9h-35.4L119.2,614.2z"/>
	<path fill="#006FB1" stroke="#006FB1" d="M275.4,607.2l167,14.7l-128.1-15.6L275.4,607.2z"/>
	<path fill="#0070B7" stroke="#0070B7" d="M314.3,606.2l128.1,15.6l-69.8-29.6L314.3,606.2z"/>
	<path fill="#0075B9" stroke="#0075B9" d="M372.6,592.2l69.8,29.6l-27.1-20.4L372.6,592.2z"/>
	<path fill="#0094C6" stroke="#0094C6" d="M442.4,621.8l153-2.2l-63.8-17.2L442.4,621.8z"/>
	<path fill="#0086BF" stroke="#0086BF" d="M442.4,621.8l89.3-19.4l-28-11.8L442.4,621.8z"/>
</g>
</svg>
