<?xml version="1.0" encoding="utf-8"?>
<!-- Generator: Adobe Illustrator 17.1.0, SVG Export Plug-In . SVG Version: 6.00 Build 0)  -->
<!DOCTYPE svg PUBLIC "-//W3C//DTD SVG 1.1//EN" "http://www.w3.org/Graphics/SVG/1.1/DTD/svg11.dtd">
<svg version="1.1" id="Layer_1" xmlns="http://www.w3.org/2000/svg" xmlns:xlink="http://www.w3.org/1999/xlink" x="0px" y="0px"
	 viewBox="0 0 612 792" enable-background="new 0 0 612 792" xml:space="preserve">
<g>
	<path fill="#00D9AF" stroke="#00D9AF" d="M-6.4,214.8l-17.2,54.5l31.2-11.2L-6.4,214.8z"/>
	<path fill="#00E0B3" stroke="#00E0B3" d="M-6.4,214.8l14,43.4l27.1-36.3L-6.4,214.8z"/>
	<path fill="#00D9AF" stroke="#00D9AF" d="M-6.4,214.8l41.1,7L174,211L-6.4,214.8z"/>
	<path fill="#00C8A7" stroke="#00C8A7" d="M34.7,221.8L7.6,258.1l54.2,3.8L34.7,221.8z"/>
	<path fill="#00C4A6" stroke="#00C4A6" d="M34.7,221.8L61.8,262l28.4-26.8L34.7,221.8z"/>
	<path fill="#00C6A6" stroke="#00C6A6" d="M34.7,221.8l55.5,13.4l42.4-8.3L34.7,221.8z"/>
	<path fill="#00C2A5" stroke="#00C2A5" d="M34.7,221.8l97.9,5.1L174,211L34.7,221.8z"/>
	<path fill="#00AD9B" stroke="#00AD9B" d="M90.2,235.2L61.8,262l58.6-4.8L90.2,235.2z"/>
	<path fill="#00AF9C" stroke="#00AF9C" d="M90.2,235.2l30.3,22l12.1-30.3L90.2,235.2z"/>
	<path fill="#00A095" stroke="#00A095" d="M132.6,226.9l-12.1,30.3l32.5-4.5L132.6,226.9z"/>
	<path fill="#00A898" stroke="#00A898" d="M132.6,226.9l20.4,25.8l21-41.8L132.6,226.9z"/>
	<path fill="#009D90" stroke="#009D90" d="M174,211l-21,41.8l53.9-17.2L174,211z"/>
	<path fill="#009F8D" stroke="#009F8D" d="M174,211l32.8,24.5l49.7-25.8L174,211z"/>
	<path fill="#009791" stroke="#009791" d="M174,211l82.6-1.3l287.5-5.1L174,211z"/>
	<path fill="#008684" stroke="#008684" d="M206.9,235.5L153,252.7l71.1,10.8L206.9,235.5z"/>
	<path fill="#008981" stroke="#008981" d="M206.9,235.5l17.2,28l32.5-53.9L206.9,235.5z"/>
	<path fill="#007B7B" stroke="#007B7B" d="M256.6,209.7l-32.5,53.9l50.4,8L256.6,209.7z"/>
	<path fill="#00797C" stroke="#00797C" d="M256.6,209.7l17.9,61.8l39.5-10.8L256.6,209.7z"/>
	<path fill="#008984" stroke="#008984" d="M256.6,209.7l57.4,51l8.9-42.1L256.6,209.7z"/>
	<path fill="#00978F" stroke="#00978F" d="M256.6,209.7l66.3,8.9l69.8-3.5L256.6,209.7z"/>
	<path fill="#009D99" stroke="#009D99" d="M256.6,209.7l136.1,5.4l57.1-2.9L256.6,209.7z"/>
	<path fill="#00A69F" stroke="#00A69F" d="M256.6,209.7l193.2,2.5l94.4-7.6L256.6,209.7z"/>
	<path fill="#008485" stroke="#008485" d="M322.9,218.6l-8.9,42.1l32.8-31.2L322.9,218.6z"/>
	<path fill="#009792" stroke="#009792" d="M322.9,218.6l23.9,10.8l45.9-14.3L322.9,218.6z"/>
	<path fill="#007380" stroke="#007380" d="M346.8,229.5L314,260.7l59.9,18.2L346.8,229.5z"/>
	<path fill="#007A88" stroke="#007A88" d="M346.8,229.5l27.1,49.4l34.7-26.1L346.8,229.5z"/>
	<path fill="#009093" stroke="#009093" d="M346.8,229.5l61.8,23.3l-15.9-37.6L346.8,229.5z"/>
	<path fill="#009C97" stroke="#009C97" d="M392.7,215.1l15.9,37.6l41.1-40.5L392.7,215.1z"/>
	<path fill="#008A8E" stroke="#008A8E" d="M449.8,212.2l-41.1,40.5l32.5,28.7L449.8,212.2z"/>
	<path fill="#009492" stroke="#009492" d="M449.8,212.2l-8.6,69.2l45.6-47.8L449.8,212.2z"/>
	<path fill="#00B6A2" stroke="#00B6A2" d="M449.8,212.2l37,21.4l57.4-29L449.8,212.2z"/>
	<path fill="#00878C" stroke="#00878C" d="M486.7,233.6l-45.6,47.8l56.4-14.7L486.7,233.6z"/>
	<path fill="#009492" stroke="#009492" d="M486.7,233.6l10.8,33.1l42.1-2.2L486.7,233.6z"/>
	<path fill="#00AC9E" stroke="#00AC9E" d="M486.7,233.6l52.9,30.9l4.5-59.9L486.7,233.6z"/>
	<path fill="#00B5A2" stroke="#00B5A2" d="M544.1,204.6l-4.5,59.9l42.4-34.4L544.1,204.6z"/>
	<path fill="#00CEAE" stroke="#00CEAE" d="M544.1,204.6l37.9,25.5l78.1-12.8L544.1,204.6z"/>
	<path fill="#00A59B" stroke="#00A59B" d="M582,230.1l-42.4,34.4l39.2-4.1L582,230.1z"/>
	<path fill="#00AFA0" stroke="#00AFA0" d="M582,230.1l-3.2,30.3l70.4,2.6L582,230.1z"/>
	<path fill="#00C3AA" stroke="#00C3AA" d="M582,230.1l67.3,32.8l10.8-45.6L582,230.1z"/>
	<path fill="#00A79D" stroke="#00A79D" d="M660.1,217.3l-10.8,45.6l1.9,70.8L660.1,217.3z"/>
	<path fill="#005D6C" stroke="#005D6C" d="M660.1,217.3l-8.9,116.3l-2.9,255L660.1,217.3z"/>
	<path fill="#00BEA2" stroke="#00BEA2" d="M-23.6,269.3l-9.2,39.2l40.5-50.4L-23.6,269.3z"/>
	<path fill="#00A396" stroke="#00A396" d="M7.6,258.1l-40.5,50.4l49.4,24.9L7.6,258.1z"/>
	<path fill="#00A697" stroke="#00A697" d="M7.6,258.1l8.9,75.2L61.8,262L7.6,258.1z"/>
	<path fill="#008789" stroke="#008789" d="M61.8,262l-45.3,71.4l43.3-3.5L61.8,262z"/>
	<path fill="#007D85" stroke="#007D85" d="M61.8,262l-1.9,67.9l60.9-9.6L61.8,262z"/>
	<path fill="#008D8C" stroke="#008D8C" d="M61.8,262l59,58.3l-0.3-63.1L61.8,262z"/>
	<path fill="#008387" stroke="#008387" d="M120.5,257.2l0.3,63.1l32.2-67.6L120.5,257.2z"/>
	<path fill="#00687B" stroke="#00687B" d="M153,252.7l-32.2,67.6l41.8,0.3L153,252.7z"/>
	<path fill="#006376" stroke="#006376" d="M153,252.7l9.6,67.9l43.7-14L153,252.7z"/>
	<path fill="#006F79" stroke="#006F79" d="M153,252.7l53.2,53.9l17.9-43L153,252.7z"/>
	<path fill="#005368" stroke="#005368" d="M224.1,263.6l-17.9,43l38.3,1.6L224.1,263.6z"/>
	<path fill="#005B6C" stroke="#005B6C" d="M224.1,263.6l20.4,44.6l30-36.7L224.1,263.6z"/>
	<path fill="#004363" stroke="#004363" d="M274.4,271.5l-30,36.7l82.9,17.2L274.4,271.5z"/>
	<path fill="#00516A" stroke="#00516A" d="M274.4,271.5l52.9,53.9L314,260.7L274.4,271.5z"/>
	<path fill="#004769" stroke="#004769" d="M314,260.7l13.4,64.7l27.7-13.7L314,260.7z"/>
	<path fill="#005974" stroke="#005974" d="M314,260.7l41.1,51l18.8-32.8L314,260.7z"/>
	<path fill="#004670" stroke="#004670" d="M373.9,278.9l-18.8,32.8l41.8,16.9L373.9,278.9z"/>
	<path fill="#005577" stroke="#005577" d="M373.9,278.9l23,49.7l44.3-47.2L373.9,278.9z"/>
	<path fill="#006F82" stroke="#006F82" d="M373.9,278.9l67.3,2.5l-32.5-28.7L373.9,278.9z"/>
	<path fill="#004A71" stroke="#004A71" d="M441.1,281.4l-44.3,47.2l58.6-2.9L441.1,281.4z"/>
	<path fill="#005977" stroke="#005977" d="M441.1,281.4l14.3,44.3l32.5-24.2L441.1,281.4z"/>
	<path fill="#007181" stroke="#007181" d="M441.1,281.4l46.9,20.1l9.6-34.7L441.1,281.4z"/>
	<path fill="#007E88" stroke="#007E88" d="M497.6,266.7l-9.6,34.7l51.6-37L497.6,266.7z"/>
	<path fill="#006E81" stroke="#006E81" d="M539.6,264.5l-51.6,37l52,23.3L539.6,264.5z"/>
	<path fill="#00838B" stroke="#00838B" d="M539.6,264.5l0.3,60.2l38.9-64.4L539.6,264.5z"/>
	<path fill="#007886" stroke="#007886" d="M578.8,260.4L540,324.8l66-11.5L578.8,260.4z"/>
	<path fill="#009694" stroke="#009694" d="M578.8,260.4l27.1,52.9l43.4-50.4L578.8,260.4z"/>
	<path fill="#00828C" stroke="#00828C" d="M649.3,262.9l-43.4,50.4l45.3,20.4L649.3,262.9z"/>
	<path fill="#008384" stroke="#008384" d="M-32.8,308.5l-9.9,210.1l8.6-92.4L-32.8,308.5z"/>
	<path fill="#008178" stroke="#008178" d="M-32.8,308.5l-1.3,117.6l8.6-54.5L-32.8,308.5z"/>
	<path fill="#008783" stroke="#008783" d="M-32.8,308.5l7.3,63.1l42.1-38.3L-32.8,308.5z"/>
	<path fill="#007373" stroke="#007373" d="M16.6,333.4l-42.1,38.3l53.2-8.6L16.6,333.4z"/>
	<path fill="#007177" stroke="#007177" d="M16.6,333.4L27.7,363l32.2-33.1L16.6,333.4z"/>
	<path fill="#00646E" stroke="#00646E" d="M59.9,329.9L27.7,363l41.1-2.5L59.9,329.9z"/>
	<path fill="#005969" stroke="#005969" d="M59.9,329.9l8.9,30.6l42.1,1.3L59.9,329.9z"/>
	<path fill="#005A6F" stroke="#005A6F" d="M59.9,329.9l51,31.9l9.9-41.4L59.9,329.9z"/>
	<path fill="#004863" stroke="#004863" d="M120.8,320.3l-9.9,41.4l46.5-10.5L120.8,320.3z"/>
	<path fill="#004A69" stroke="#004A69" d="M120.8,320.3l36.7,30.9l5.1-30.6L120.8,320.3z"/>
	<path fill="#003657" stroke="#003657" d="M162.6,320.6l-5.1,30.6l52.3,14.7L162.6,320.6z"/>
	<path fill="#003A5D" stroke="#003A5D" d="M162.6,320.6l47.2,45.3l-3.5-59.3L162.6,320.6z"/>
	<path fill="#003358" stroke="#003358" d="M206.2,306.6l3.5,59.3l34.7-57.7L206.2,306.6z"/>
	<path fill="#002247" stroke="#002247" d="M244.5,308.2l-34.7,57.7l35.1,6.4L244.5,308.2z"/>
	<path fill="#002750" stroke="#002750" d="M244.5,308.2l0.3,64.1l82.6-46.9L244.5,308.2z"/>
	<path fill="#001B46" stroke="#001B46" d="M327.4,325.4l-82.6,46.9l83.5-20.4L327.4,325.4z"/>
	<path fill="#002C5A" stroke="#002C5A" d="M327.4,325.4l1,26.5l26.8-40.2L327.4,325.4z"/>
	<path fill="#002352" stroke="#002352" d="M355.1,311.7l-26.8,40.2l41.1,25.5L355.1,311.7z"/>
	<path fill="#002B5C" stroke="#002B5C" d="M355.1,311.7l14.3,65.7l27.4-48.8L355.1,311.7z"/>
	<path fill="#002354" stroke="#002354" d="M396.8,328.6l-27.4,48.8l29-18.5L396.8,328.6z"/>
	<path fill="#003460" stroke="#003460" d="M396.8,328.6l1.6,30.3l57.1-33.2L396.8,328.6z"/>
	<path fill="#002F58" stroke="#002F58" d="M455.5,325.7l-57.1,33.2l65.7,11.5L455.5,325.7z"/>
	<path fill="#00385C" stroke="#00385C" d="M455.5,325.7l8.6,44.6l48.4-15.6L455.5,325.7z"/>
	<path fill="#00486D" stroke="#00486D" d="M455.5,325.7l57.1,29L488,301.5L455.5,325.7z"/>
	<path fill="#004F71" stroke="#004F71" d="M488,301.5l24.5,53.2l27.4-30L488,301.5z"/>
	<path fill="#004562" stroke="#004562" d="M540,324.8l-27.4,30l45.3,21L540,324.8z"/>
	<path fill="#004E68" stroke="#004E68" d="M540,324.8l17.9,51l55.8-26.8L540,324.8z"/>
	<path fill="#006078" stroke="#006078" d="M540,324.8l73.6,24.2l-7.7-35.7L540,324.8z"/>
	<path fill="#00677B" stroke="#00677B" d="M605.9,313.3l7.7,35.7l37.6-15.3L605.9,313.3z"/>
	<path fill="#006073" stroke="#006073" d="M651.2,333.7L613.6,349l16.3,4.1L651.2,333.7z"/>
	<path fill="#00596A" stroke="#00596A" d="M651.2,333.7l-21.4,19.4l1.9,77.5L651.2,333.7z"/>
	<path fill="#005D80" stroke="#005D80" d="M651.2,333.7l-19.4,96.9l14,126.9L651.2,333.7z"/>
	<path fill="#00788B" stroke="#00788B" d="M651.2,333.7l-5.4,223.8l2.5,31.2L651.2,333.7z"/>
	<path fill="#007878" stroke="#007878" d="M-25.5,371.6l-8.6,54.5l67.9-9.9L-25.5,371.6z"/>
	<path fill="#006F70" stroke="#006F70" d="M-25.5,371.6l59.3,44.6L27.7,363L-25.5,371.6z"/>
	<path fill="#00646B" stroke="#00646B" d="M27.7,363l6.1,53.2l25.5-21.4L27.7,363z"/>
	<path fill="#006069" stroke="#006069" d="M27.7,363l31.6,31.9l9.6-34.4L27.7,363z"/>
	<path fill="#005464" stroke="#005464" d="M68.8,360.5l-9.6,34.4l51.6-33.1L68.8,360.5z"/>
	<path fill="#004E61" stroke="#004E61" d="M110.9,361.7l-51.6,33.1l52,22L110.9,361.7z"/>
	<path fill="#00405A" stroke="#00405A" d="M110.9,361.7l0.3,55.1l46.2-65.7L110.9,361.7z"/>
	<path fill="#003858" stroke="#003858" d="M157.5,351.2l-46.2,65.7l60.9,10.2L157.5,351.2z"/>
	<path fill="#002C4E" stroke="#002C4E" d="M157.5,351.2l14.7,75.9l37.6-61.2L157.5,351.2z"/>
	<path fill="#00254D" stroke="#00254D" d="M209.7,365.9l-37.6,61.2l52.6-0.3L209.7,365.9z"/>
	<path fill="#001D41" stroke="#001D41" d="M209.7,365.9l15,60.9l20.1-54.5L209.7,365.9z"/>
	<path fill="#001A43" stroke="#001A43" d="M244.8,372.3l-20.1,54.5l57.1-23.9L244.8,372.3z"/>
	<path fill="#001740" stroke="#001740" d="M244.8,372.3l37,30.6l46.5-51L244.8,372.3z"/>
	<path fill="#001540" stroke="#001540" d="M328.3,351.9l-46.5,51l23.3,4.5L328.3,351.9z"/>
	<path fill="#001845" stroke="#001845" d="M328.3,351.9L305,407.3l49.4,3.8L328.3,351.9z"/>
	<path fill="#001B4A" stroke="#001B4A" d="M328.3,351.9l26.1,59.3l15-33.8L328.3,351.9z"/>
	<path fill="#001E50" stroke="#001E50" d="M369.4,377.4l-15,33.8l38.3-3.2L369.4,377.4z"/>
	<path fill="#002151" stroke="#002151" d="M369.4,377.4l23.3,30.6l5.7-49.1L369.4,377.4z"/>
	<path fill="#002552" stroke="#002552" d="M398.4,358.9l-5.7,49.1l53.2-0.6L398.4,358.9z"/>
	<path fill="#002A53" stroke="#002A53" d="M398.4,358.9l47.5,48.4l18.2-37L398.4,358.9z"/>
	<path fill="#003157" stroke="#003157" d="M464.1,370.3l-18.2,37l56.1,11.8L464.1,370.3z"/>
	<path fill="#003658" stroke="#003658" d="M464.1,370.3l37.9,48.8l10.5-64.4L464.1,370.3z"/>
	<path fill="#003C5C" stroke="#003C5C" d="M512.5,354.7L502,419.1l34.7-3.2L512.5,354.7z"/>
	<path fill="#00405E" stroke="#00405E" d="M512.5,354.7l24.2,61.2l21-40.2L512.5,354.7z"/>
	<path fill="#004764" stroke="#004764" d="M557.8,375.8l-21,40.2l52.9-0.6L557.8,375.8z"/>
	<path fill="#004D64" stroke="#004D64" d="M557.8,375.8l31.9,39.5l23.9-66.3L557.8,375.8z"/>
	<path fill="#005367" stroke="#005367" d="M613.6,349l-23.9,66.3l40.2-62.2L613.6,349z"/>
	<path fill="#00546A" stroke="#00546A" d="M629.8,353.1l-40.2,62.2l42.1,15.3L629.8,353.1z"/>
	<path fill="#009291" stroke="#009291" d="M-34.1,426.1l-8.6,92.4l16.3-44.6L-34.1,426.1z"/>
	<path fill="#00818B" stroke="#00818B" d="M-34.1,426.1l7.7,47.8L14,447.8L-34.1,426.1z"/>
	<path fill="#007283" stroke="#007283" d="M-34.1,426.1L14,447.8l19.8-31.6L-34.1,426.1z"/>
	<path fill="#006C82" stroke="#006C82" d="M33.8,416.2L14,447.8L54.5,479L33.8,416.2z"/>
	<path fill="#005B7B" stroke="#005B7B" d="M33.8,416.2L54.5,479l56.7-62.2L33.8,416.2z"/>
	<path fill="#00596D" stroke="#00596D" d="M33.8,416.2l77.5,0.6l-52-22L33.8,416.2z"/>
	<path fill="#005476" stroke="#005476" d="M111.2,416.9L54.5,479l64.7-27.4L111.2,416.9z"/>
	<path fill="#003D6C" stroke="#003D6C" d="M111.2,416.9l8,34.7l52.9-24.5L111.2,416.9z"/>
	<path fill="#003D6B" stroke="#003D6B" d="M172.1,427.1l-52.9,24.5l38.2,15.6L172.1,427.1z"/>
	<path fill="#003464" stroke="#003464" d="M172.1,427.1l-14.7,40.2l54.2-5.4L172.1,427.1z"/>
	<path fill="#00275C" stroke="#00275C" d="M172.1,427.1l39.5,34.7l13.1-35.1L172.1,427.1z"/>
	<path fill="#002556" stroke="#002556" d="M224.7,426.8l-13.1,35.1l43.7,13.1L224.7,426.8z"/>
	<path fill="#001A54" stroke="#001A54" d="M224.7,426.8l30.6,48.1l26.5-72L224.7,426.8z"/>
	<path fill="#001A55" stroke="#001A55" d="M281.8,402.9l-26.5,72l59-30.6L281.8,402.9z"/>
	<path fill="#00154C" stroke="#00154C" d="M281.8,402.9l32.5,41.4l-9.2-37L281.8,402.9z"/>
	<path fill="#001752" stroke="#001752" d="M305,407.3l9.2,37l40.2-33.1L305,407.3z"/>
	<path fill="#001C5C" stroke="#001C5C" d="M354.4,411.1l-40.2,33.1L355,464L354.4,411.1z"/>
	<path fill="#001E5E" stroke="#001E5E" d="M354.4,411.1L355,464l37.6-56.1L354.4,411.1z"/>
	<path fill="#002666" stroke="#002666" d="M392.7,408l-37.6,56.1l55.1,5.1L392.7,408z"/>
	<path fill="#002663" stroke="#002663" d="M392.7,408l17.5,61.2l35.7-61.8L392.7,408z"/>
	<path fill="#002F69" stroke="#002F69" d="M445.9,407.3l-35.7,61.8l38.3-5.1L445.9,407.3z"/>
	<path fill="#002F67" stroke="#002F67" d="M445.9,407.3l2.5,56.7l53.6-44.9L445.9,407.3z"/>
	<path fill="#00396D" stroke="#00396D" d="M502,419.1L448.4,464l69.5-21L502,419.1z"/>
	<path fill="#003C6C" stroke="#003C6C" d="M502,419.1l16,23.9l18.8-27.1L502,419.1z"/>
	<path fill="#004372" stroke="#004372" d="M536.8,415.9L518,443l20.1,29L536.8,415.9z"/>
	<path fill="#004574" stroke="#004574" d="M536.8,415.9L538,472l51.6-56.7L536.8,415.9z"/>
	<path fill="#005379" stroke="#005379" d="M589.7,415.3L538,472l69.2,0.3L589.7,415.3z"/>
	<path fill="#00557B" stroke="#00557B" d="M589.7,415.3l17.5,57.1l24.5-41.8L589.7,415.3z"/>
	<path fill="#005F7F" stroke="#005F7F" d="M631.8,430.6l-24.5,41.8l22.6,1.9L631.8,430.6z"/>
	<path fill="#007187" stroke="#007187" d="M631.8,430.6l-1.9,43.7l15.9,83.2L631.8,430.6z"/>
	<path fill="#009694" stroke="#009694" d="M-26.5,473.9l-16.3,44.6l72-28.1L-26.5,473.9z"/>
	<path fill="#008189" stroke="#008189" d="M-26.5,473.9l55.8,16.6L14,447.8L-26.5,473.9z"/>
	<path fill="#007785" stroke="#007785" d="M14,447.8l15.3,42.7L54.5,479L14,447.8z"/>
	<path fill="#007C88" stroke="#007C88" d="M54.5,479l-25.2,11.5L64,504.8L54.5,479z"/>
	<path fill="#007283" stroke="#007283" d="M54.5,479l9.6,25.8l50.7-4.1L54.5,479z"/>
	<path fill="#00607A" stroke="#00607A" d="M54.5,479l60.2,21.7l4.5-49.1L54.5,479z"/>
	<path fill="#004F72" stroke="#004F72" d="M119.2,451.6l-4.5,49.1l42.7-33.5L119.2,451.6z"/>
	<path fill="#005777" stroke="#005777" d="M157.5,467.2l-42.7,33.5l48.1,22.9L157.5,467.2z"/>
	<path fill="#00496D" stroke="#00496D" d="M157.5,467.2l5.4,56.4l63.4-26.5L157.5,467.2z"/>
	<path fill="#003862" stroke="#003862" d="M157.5,467.2l68.9,30l-14.7-35.4L157.5,467.2z"/>
	<path fill="#002F5A" stroke="#002F5A" d="M211.6,461.8l14.7,35.4l29-22.3L211.6,461.8z"/>
	<path fill="#003960" stroke="#003960" d="M255.3,474.9l-29,22.3l17.5,20.1L255.3,474.9z"/>
	<path fill="#003C63" stroke="#003C63" d="M255.3,474.9l-11.5,42.4l66.3,9.2L255.3,474.9z"/>
	<path fill="#002B5C" stroke="#002B5C" d="M255.3,474.9l54.8,51.6l4.1-82.2L255.3,474.9z"/>
	<path fill="#003363" stroke="#003363" d="M314.3,444.3l-4.1,82.2l37-20.7L314.3,444.3z"/>
	<path fill="#00285F" stroke="#00285F" d="M314.3,444.3l32.8,61.5l8-41.8L314.3,444.3z"/>
	<path fill="#003B6D" stroke="#003B6D" d="M355.1,464.1l-8,41.8l51,11.2L355.1,464.1z"/>
	<path fill="#00376D" stroke="#00376D" d="M355.1,464.1l43,52.9l12.1-47.8L355.1,464.1z"/>
	<path fill="#004773" stroke="#004773" d="M410.2,469.2L398.1,517h44L410.2,469.2z"/>
	<path fill="#00406F" stroke="#00406F" d="M410.2,469.2l31.9,47.8l6.4-52.9L410.2,469.2z"/>
	<path fill="#005076" stroke="#005076" d="M448.5,464.1l-6.4,52.9l78.7-2.2L448.5,464.1z"/>
	<path fill="#004772" stroke="#004772" d="M448.5,464.1l72.4,50.7L518,443L448.5,464.1z"/>
	<path fill="#005076" stroke="#005076" d="M518,443l2.9,71.7L538,472L518,443z"/>
	<path fill="#00627F" stroke="#00627F" d="M538,472l-17.2,42.7l44.3,1.9L538,472z"/>
	<path fill="#00617F" stroke="#00617F" d="M538,472l27.1,44.6l42.1-44.3L538,472z"/>
	<path fill="#006D85" stroke="#006D85" d="M607.2,472.3l-42.1,44.3l27.1-3.8L607.2,472.3z"/>
	<path fill="#007287" stroke="#007287" d="M607.2,472.3l-15,40.5l38.3-0.3L607.2,472.3z"/>
	<path fill="#006D85" stroke="#006D85" d="M607.2,472.3l23.3,40.2l-0.6-38.3L607.2,472.3z"/>
	<path fill="#008190" stroke="#008190" d="M629.8,474.3l0.6,38.3l15.3,44.9L629.8,474.3z"/>
	<path fill="#00C9AE" stroke="#00C9AE" d="M-42.7,518.6L-37,618l28-44.9L-42.7,518.6z"/>
	<path fill="#00A79D" stroke="#00A79D" d="M-42.7,518.6l33.8,54.5l38.3-82.6L-42.7,518.6z"/>
	<path fill="#00A89D" stroke="#00A89D" d="M29.3,490.5L-9,573.1l42.1-2.5L29.3,490.5z"/>
	<path fill="#009896" stroke="#009896" d="M29.3,490.5l3.8,80l23-32.8L29.3,490.5z"/>
	<path fill="#00878E" stroke="#00878E" d="M29.3,490.5l26.8,47.2l8-32.8L29.3,490.5z"/>
	<path fill="#00888F" stroke="#00888F" d="M64.1,504.9l-8,32.8l45.6,7.6L64.1,504.9z"/>
	<path fill="#007987" stroke="#007987" d="M64.1,504.9l37.6,40.5l13.1-44.6L64.1,504.9z"/>
	<path fill="#006E82" stroke="#006E82" d="M114.8,500.7l-13.1,44.6l61.2-21.7L114.8,500.7z"/>
	<path fill="#007184" stroke="#007184" d="M162.9,523.7l-61.2,21.7l61.8,4.1L162.9,523.7z"/>
	<path fill="#00657C" stroke="#00657C" d="M162.9,523.7l0.6,25.8l36.7-2.2L162.9,523.7z"/>
	<path fill="#005571" stroke="#005571" d="M162.9,523.7l37.3,23.6l26.1-50L162.9,523.7z"/>
	<path fill="#004A69" stroke="#004A69" d="M226.3,497.2l-26.1,50l43.7-30L226.3,497.2z"/>
	<path fill="#00556E" stroke="#00556E" d="M243.8,517.3l-43.7,30l53.2,14.7L243.8,517.3z"/>
	<path fill="#00526E" stroke="#00526E" d="M243.8,517.3l9.6,44.6l42.7-12.1L243.8,517.3z"/>
	<path fill="#00496B" stroke="#00496B" d="M243.8,517.3l52.3,32.5l14-23.3L243.8,517.3z"/>
	<path fill="#005072" stroke="#005072" d="M310.1,526.5l-14,23.3l72.7,1.9L310.1,526.5z"/>
	<path fill="#004A72" stroke="#004A72" d="M310.1,526.5l58.6,25.2L347,505.8L310.1,526.5z"/>
	<path fill="#004D77" stroke="#004D77" d="M347.1,505.8l21.7,45.9l29.3-34.7L347.1,505.8z"/>
	<path fill="#00577D" stroke="#00577D" d="M398.1,517l-29.3,34.7l44.9-12.4L398.1,517z"/>
	<path fill="#00557B" stroke="#00557B" d="M398.1,517l15.6,22.3l28.4-22.3H398.1z"/>
	<path fill="#006481" stroke="#006481" d="M442.1,517l-28.4,22.3l55.8,34.7L442.1,517z"/>
	<path fill="#006D86" stroke="#006D86" d="M442.1,517l27.4,57.1l16.6-14.3L442.1,517z"/>
	<path fill="#006681" stroke="#006681" d="M442.1,517l44,42.7l34.7-44.9L442.1,517z"/>
	<path fill="#00758A" stroke="#00758A" d="M520.8,514.7l-34.7,44.9l47.2-2.2L520.8,514.7z"/>
	<path fill="#007388" stroke="#007388" d="M520.8,514.7l12.4,42.7l31.9-40.8L520.8,514.7z"/>
	<path fill="#008692" stroke="#008692" d="M565.1,516.6l-31.9,40.8l81.9,17.9L565.1,516.6z"/>
	<path fill="#008290" stroke="#008290" d="M565.1,516.6l50,58.7l-23-62.5L565.1,516.6z"/>
	<path fill="#008692" stroke="#008692" d="M592.2,512.8l23,62.5l15.3-62.8L592.2,512.8z"/>
	<path fill="#009499" stroke="#009499" d="M630.5,512.5l-15.3,62.8l30.6-17.9L630.5,512.5z"/>
	<path fill="#00D1B2" stroke="#00D1B2" d="M-8.9,573.1L-37,618l54.2-19.8L-8.9,573.1z"/>
	<path fill="#00BEA9" stroke="#00BEA9" d="M-8.9,573.1l26.1,25.2l15.9-27.7L-8.9,573.1z"/>
	<path fill="#00BAA8" stroke="#00BAA8" d="M33.1,570.5l-15.9,27.7l47.5,3.2L33.1,570.5z"/>
	<path fill="#00A99F" stroke="#00A99F" d="M33.1,570.5l31.6,30.9l-8.6-63.8L33.1,570.5z"/>
	<path fill="#009B99" stroke="#009B99" d="M56.1,537.7l8.6,63.8l37-56.1L56.1,537.7z"/>
	<path fill="#00A19C" stroke="#00A19C" d="M101.7,545.3l-37,56.1l54.5,12.8L101.7,545.3z"/>
	<path fill="#008991" stroke="#008991" d="M101.7,545.3l17.5,68.9l44.3-64.7L101.7,545.3z"/>
	<path fill="#008A91" stroke="#008A91" d="M163.5,549.5l-44.3,64.7l51.6-15.9L163.5,549.5z"/>
	<path fill="#007383" stroke="#007383" d="M163.5,549.5l7.3,48.8l29.3-51L163.5,549.5z"/>
	<path fill="#007884" stroke="#007884" d="M200.2,547.2l-29.3,51h35.4L200.2,547.2z"/>
	<path fill="#006879" stroke="#006879" d="M200.2,547.2l6.1,51l47.2-36.3L200.2,547.2z"/>
	<path fill="#006F7C" stroke="#006F7C" d="M253.4,561.9l-47.2,36.3l69.2,8.9L253.4,561.9z"/>
	<path fill="#006378" stroke="#006378" d="M253.4,561.9l22,45.3l20.7-57.4L253.4,561.9z"/>
	<path fill="#00697C" stroke="#00697C" d="M296.1,549.8l-20.7,57.4l38.9-1L296.1,549.8z"/>
	<path fill="#00607B" stroke="#00607B" d="M296.1,549.8l18.2,56.4l54.5-54.5L296.1,549.8z"/>
	<path fill="#006C85" stroke="#006C85" d="M368.8,551.7l-54.5,54.5l58.3-14L368.8,551.7z"/>
	<path fill="#006484" stroke="#006484" d="M368.8,551.7l3.8,40.5l41.1-52.9L368.8,551.7z"/>
	<path fill="#00718A" stroke="#00718A" d="M413.7,539.3l-41.1,52.9l42.7,9.2L413.7,539.3z"/>
	<path fill="#00738A" stroke="#00738A" d="M413.7,539.3l1.6,62.2l54.2-27.4L413.7,539.3z"/>
	<path fill="#008593" stroke="#008593" d="M469.5,574l-54.2,27.4l27.1,20.4L469.5,574z"/>
	<path fill="#008994" stroke="#008994" d="M469.5,574l-27.1,47.8l61.2-31.2L469.5,574z"/>
	<path fill="#008090" stroke="#008090" d="M469.5,574l34.1,16.6l-17.5-30.9L469.5,574z"/>
	<path fill="#008290" stroke="#008290" d="M486.1,559.7l17.5,30.9l29.6-33.2L486.1,559.7z"/>
	<path fill="#008E97" stroke="#008E97" d="M533.3,557.4l-29.6,33.2l28,11.8L533.3,557.4z"/>
	<path fill="#00949A" stroke="#00949A" d="M533.3,557.4l-1.6,44.9l83.5-27.1L533.3,557.4z"/>
	<path fill="#00A5A3" stroke="#00A5A3" d="M615.2,575.3l-83.5,27.1l63.8,17.2L615.2,575.3z"/>
	<path fill="#00ACA6" stroke="#00ACA6" d="M615.2,575.3l-19.8,44.3l52.9-30.9L615.2,575.3z"/>
	<path fill="#00A4A2" stroke="#00A4A2" d="M615.2,575.3l33.1,13.4l-2.5-31.2L615.2,575.3z"/>
	<path fill="#009494" stroke="#009494" d="M-37,618l479.4,3.8l-323.2-7.6L-37,618z"/>
	<path fill="#00C2AC" stroke="#00C2AC" d="M-37,618l156.2-3.8l-54.5-12.8L-37,618z"/>
	<path fill="#00CCB1" stroke="#00CCB1" d="M-37,618l101.7-16.6l-47.5-3.2L-37,618z"/>
	<path fill="#007A84" stroke="#007A84" d="M119.2,614.2l323.2,7.6l-167-14.7L119.2,614.2z"/>
	<path fill="#00848A" stroke="#00848A" d="M119.2,614.2l156.2-7l-69.2-8.9L119.2,614.2z"/>
	<path fill="#008E92" stroke="#008E92" d="M119.2,614.2l87-15.9h-35.4L119.2,614.2z"/>
	<path fill="#007C8B" stroke="#007C8B" d="M275.4,607.2l167,14.7l-128.1-15.6L275.4,607.2z"/>
	<path fill="#007D91" stroke="#007D91" d="M314.3,606.2l128.1,15.6l-69.8-29.6L314.3,606.2z"/>
	<path fill="#008293" stroke="#008293" d="M372.6,592.2l69.8,29.6l-27.1-20.4L372.6,592.2z"/>
	<path fill="#00A1A0" stroke="#00A1A0" d="M442.4,621.8l153-2.2l-63.8-17.2L442.4,621.8z"/>
	<path fill="#009399" stroke="#009399" d="M442.4,621.8l89.3-19.4l-28-11.8L442.4,621.8z"/>
</g>
</svg>
